<svg width="134" height="140" viewBox="0 0 134 140" fill="none" xmlns="http://www.w3.org/2000/svg">
<path d="M17.6677 0.625977H40.7091C43.4994 1.67775 44.5078 3.73069 44.4464 6.64746C44.3343 11.8738 44.4138 17.1074 44.4138 22.3373C44.4138 23.812 44.4138 25.283 44.4138 26.7612H49.0185C49.0583 26.6203 49.0799 26.5769 49.0799 26.5372C49.0872 21.712 49.0799 16.8905 49.1088 12.0654C49.1233 9.52448 50.71 7.58719 53.1714 7.26913C54.5918 7.0848 56.0592 7.12456 57.4977 7.22214C58.6254 7.29804 59.276 8.07513 59.3338 9.21364C59.388 10.2726 58.5314 11.1292 57.3604 11.2015C56.4604 11.2557 55.5496 11.2738 54.6532 11.216C53.5545 11.1473 53.1316 11.5377 53.1461 12.6834C53.2003 16.9194 53.1967 21.159 53.1461 25.3986C53.1316 26.5227 53.5111 26.8841 54.6316 26.8805C62.8542 26.8444 71.0732 26.8444 79.2958 26.8805C80.4705 26.8878 80.8789 26.5335 80.8608 25.3372C80.7994 21.2819 80.8391 17.223 80.8391 13.1641C80.8391 11.875 80.1873 11.2292 78.8838 11.2268C74.955 11.2268 71.0226 11.2413 67.0938 11.216C65.5216 11.2051 64.5854 10.2257 64.8312 8.87751C65.0698 7.57635 66.0095 7.16793 67.2203 7.16793C71.3768 7.16793 75.5333 7.15708 79.6898 7.17154C82.9571 7.18238 84.8944 9.1269 84.9016 12.4015C84.9125 16.8182 84.9016 21.2385 84.9089 25.6553C84.9089 26.0384 84.9522 26.4251 84.9775 26.7829H89.5967C89.5967 26.4432 89.5967 26.1793 89.5967 25.9155C89.5967 21.047 89.575 16.1785 89.6003 11.3063C89.6183 8.0173 91.5629 6.08001 94.8338 6.07278C101.52 6.05833 108.207 6.0511 114.89 6.0764C117.94 6.08724 119.899 8.02814 119.925 11.0642C119.961 15.3472 119.935 19.6302 119.935 23.9132C119.935 24.8493 119.935 25.7854 119.935 26.7902C120.441 26.8155 120.835 26.8552 121.233 26.8552C124.034 26.8625 126.835 26.8335 129.636 26.8697C132.058 26.9022 133.829 28.6262 133.923 31.0262C133.981 32.5117 133.981 34.0044 133.923 35.4899C133.836 37.7886 132.17 39.462 129.9 39.6247C129.553 39.65 129.206 39.6934 128.744 39.7403C128.744 40.2969 128.744 40.7849 128.744 41.2728C128.744 44.3378 128.762 47.4063 128.736 50.4713C128.722 52.058 127.934 52.9327 126.644 52.911C125.389 52.8857 124.692 52.0688 124.685 50.5183C124.667 47.4533 124.677 44.3884 124.677 41.3198C124.677 40.7957 124.677 40.2753 124.677 39.7223H120.026V135.014H124.677V133.222C124.677 109.418 124.677 85.6099 124.677 61.8059C124.677 61.2637 124.656 60.7216 124.71 60.183C124.815 59.1457 125.433 58.5349 126.452 58.4228C127.529 58.3072 128.317 58.7951 128.595 59.8577C128.74 60.4107 128.736 61.0143 128.736 61.5962C128.744 85.6713 128.744 109.746 128.74 133.825C128.74 134.23 128.758 134.638 128.725 135.043C128.527 137.472 126.806 139.095 124.359 139.138C123.185 139.16 122.01 139.145 120.835 139.142C117.507 139.135 115.88 137.501 115.869 134.14C115.862 132.032 115.869 129.929 115.869 127.768H18.1304C18.1304 130.117 18.1629 132.365 18.1231 134.609C18.0761 137.425 16.3268 139.117 13.5076 139.138C12.4703 139.145 11.4294 139.138 10.3921 139.138C6.85363 139.138 5.26694 137.559 5.26694 134.024C5.26694 124.377 5.26332 114.727 5.27417 105.08C5.27417 104.502 5.19465 103.743 5.51271 103.389C6.02233 102.818 6.8717 102.145 7.50783 102.207C8.14395 102.272 8.79092 103.118 9.24271 103.754C9.48125 104.094 9.32945 104.715 9.32945 105.21C9.32945 114.59 9.32945 123.965 9.32945 133.344C9.32945 133.872 9.32945 134.4 9.32945 135.003H13.9486V39.744H9.32945C9.32945 40.3873 9.32945 40.9222 9.32945 41.4571C9.32945 58.7698 9.32945 76.0825 9.32945 93.3952C9.32945 93.8903 9.34752 94.3891 9.29331 94.8807C9.17765 95.9144 8.54514 96.5288 7.54397 96.6408C6.4669 96.7601 5.6862 96.2433 5.4079 95.1879C5.26332 94.6349 5.27055 94.0277 5.27055 93.4494C5.26332 76.0897 5.26694 58.7337 5.26694 41.374C5.26694 40.8138 5.26694 40.2536 5.26694 39.7187C1.31647 39.3934 0.0695195 38.0127 0.0695195 34.2357C0.0695195 33.1984 -0.118426 32.1141 0.123735 31.1382C0.402039 30.0142 0.832145 28.7419 1.62368 27.9829C2.33932 27.2962 3.62603 26.9528 4.68141 26.9094C7.77529 26.7721 10.88 26.8625 14.0715 26.8625C14.0715 26.342 14.0715 25.9914 14.0715 25.6408C14.0715 19.3302 14.1691 13.0159 14.0281 6.70529C13.963 3.78129 14.9317 1.74642 17.6713 0.629591L17.6677 0.625977ZM49.1016 71.0766C49.1016 66.1792 49.0944 61.448 49.1016 56.7169C49.1088 53.4061 51.0028 51.4869 54.2882 51.4833C62.7783 51.4725 71.2683 51.4725 79.762 51.4833C82.9643 51.4869 84.8908 53.4242 84.9016 56.6301C84.9161 61.0469 84.9016 65.4636 84.9089 69.8839C84.9089 70.2706 84.9558 70.6574 84.9811 71.0694H89.593C89.593 70.5959 89.593 70.1984 89.593 69.8008C89.593 63.4432 89.593 57.0892 89.593 50.7315C89.593 46.6184 91.3026 44.9305 95.4555 44.9269C101.824 44.9269 108.192 44.9269 114.561 44.9269C114.955 44.9269 115.345 44.9269 115.768 44.9269V39.7078H18.2207V44.9269C18.7448 44.9269 19.1858 44.9269 19.6267 44.9269C26.0385 44.9269 32.454 44.9197 38.8658 44.9269C42.6103 44.9341 44.4066 46.7449 44.4102 50.5074C44.4174 56.9988 44.4102 63.4901 44.4138 69.9815C44.4138 70.3285 44.45 70.6755 44.4753 71.0766H49.1016ZM49.1016 114.749C49.1016 107.722 49.098 100.826 49.1016 93.9337C49.1016 90.4965 51.0136 88.5953 54.4834 88.5917C62.8397 88.5809 71.1961 88.5809 79.5524 88.5917C83.0041 88.5953 84.898 90.5109 84.9016 93.9662C84.9089 100.458 84.9016 106.949 84.9016 113.444C84.9016 113.878 84.9016 114.311 84.9016 114.72H89.5894C89.5894 107.755 89.5786 100.902 89.593 94.053C89.6003 90.5109 91.5014 88.6279 95.0435 88.6243C101.459 88.617 107.871 88.6243 114.286 88.6243C114.767 88.6243 115.248 88.6243 115.801 88.6243V84.0196H18.2135V88.6062C18.734 88.6062 19.1713 88.6062 19.6122 88.6062C24.2205 88.6062 28.8288 88.5953 33.4335 88.6062C37.0189 88.617 38.8875 90.4567 38.8947 94.006C38.9092 100.093 38.8983 106.179 38.8983 112.266C38.8983 113.068 38.8983 113.867 38.8983 114.749H49.098H49.1016ZM67.0034 114.828C71.1129 114.828 75.2261 114.788 79.3355 114.854C80.55 114.872 80.8717 114.46 80.8644 113.292C80.8174 106.934 80.8102 100.577 80.8644 94.2229C80.8753 92.9325 80.3982 92.6181 79.1982 92.6217C71.0659 92.6615 62.9373 92.6615 54.805 92.6217C53.6015 92.6145 53.128 92.9361 53.1388 94.2229C53.1967 100.58 53.1894 106.934 53.1388 113.292C53.1316 114.46 53.4533 114.872 54.6677 114.85C58.7772 114.785 62.8867 114.825 66.9998 114.825L67.0034 114.828ZM129.839 31.0406H4.21516V35.4537H129.839V31.0406ZM115.873 60.0132C115.873 56.8578 115.833 53.7061 115.895 50.5508C115.916 49.4087 115.598 48.9569 114.373 48.9641C107.965 49.0147 101.553 49.0075 95.141 48.9677C94.0242 48.9605 93.6375 49.34 93.6411 50.4532C93.6772 56.8506 93.6736 63.248 93.6411 69.6454C93.6375 70.7297 93.97 71.1742 95.1158 71.167C101.571 71.1272 108.026 71.1345 114.481 71.167C115.54 71.1706 115.902 70.7911 115.887 69.743C115.84 66.5009 115.869 63.2552 115.869 60.0132H115.873ZM18.2207 123.532H115.754V118.959H18.2207V123.532ZM115.808 75.291H18.2243V79.7764H115.808V75.291ZM67.0721 55.5386C62.9626 55.5386 58.8531 55.5675 54.7472 55.5169C53.6195 55.5025 53.128 55.7699 53.1461 57.0133C53.2111 61.2493 53.1967 65.4853 53.1533 69.7213C53.1425 70.7658 53.4786 71.1634 54.5448 71.1634C62.8542 71.1381 71.1599 71.1381 79.4693 71.1634C80.5391 71.1634 80.8716 70.7658 80.8608 69.7213C80.8174 65.5322 80.803 61.3396 80.868 57.1506C80.8861 55.9253 80.5427 55.4916 79.2633 55.5133C75.2008 55.5856 71.1346 55.5386 67.0721 55.5386ZM104.784 26.8588C107.99 26.8588 111.2 26.8191 114.405 26.8805C115.537 26.9022 115.905 26.5119 115.895 25.3986C115.851 20.8012 115.851 16.2002 115.895 11.6027C115.905 10.4931 115.533 10.1028 114.405 10.11C107.99 10.1498 101.578 10.1498 95.1627 10.11C94.0423 10.1028 93.6411 10.4967 93.6519 11.6027C93.6881 16.2002 93.6881 20.8012 93.6519 25.3986C93.6447 26.5119 94.0495 26.8986 95.17 26.8769C98.3759 26.8191 101.585 26.8552 104.791 26.8552L104.784 26.8588ZM22.8109 48.9858C21.6182 48.9858 20.6206 49.0509 19.6375 48.9677C18.4087 48.8665 18.1051 49.3978 18.1123 50.5436C18.1557 56.8976 18.1593 63.2552 18.1123 69.6128C18.1051 70.7983 18.4846 71.1778 19.6665 71.167C26.0349 71.1236 32.4034 71.1164 38.7718 71.167C40.073 71.1778 40.3875 70.6682 40.3658 69.4827C40.3116 66.1467 40.3477 62.8107 40.3477 59.4746C40.3477 56.453 40.3838 53.4314 40.3079 50.4135C40.2971 49.9364 39.8345 49.1051 39.4983 49.0617C38.2695 48.8991 37.008 48.9967 35.6744 48.9967C35.6491 49.5786 35.6129 50.0195 35.6129 50.4605C35.6057 52.6688 35.6382 54.8772 35.5985 57.0855C35.5659 58.8674 34.3732 59.6626 32.6708 59.0987C32.201 58.9433 31.713 58.806 31.2829 58.5746C29.9023 57.8301 28.5505 57.8337 27.177 58.5746C26.9024 58.7228 26.5915 58.8096 26.2952 58.918C23.9494 59.7854 22.8218 59.0264 22.8145 56.5651C22.8073 54.0965 22.8145 51.6243 22.8145 48.9786L22.8109 48.9858ZM22.8109 4.68488C21.629 4.68488 20.5917 4.75355 19.5725 4.66681C18.3906 4.56922 18.1123 5.10414 18.1195 6.17398C18.1521 12.5714 18.1593 18.9687 18.1123 25.3661C18.1014 26.5878 18.5605 26.8878 19.7062 26.8805C26.0711 26.8372 32.4359 26.8335 38.8008 26.8805C40.0043 26.8914 40.3802 26.4685 40.3658 25.3119C40.3188 21.394 40.3477 17.4724 40.3477 13.5545C40.3477 11.0317 40.3477 8.50885 40.3477 5.98604C40.3477 5.31377 40.2718 4.68849 39.3718 4.68849C38.1646 4.68849 36.9611 4.68849 35.6129 4.68849C35.6129 7.25106 35.6129 9.67266 35.6129 12.0943C35.6093 14.7761 34.4744 15.6761 32.0817 14.5737C30.0721 13.6484 28.2469 13.5508 26.3421 14.6315C26.2662 14.6749 26.1686 14.6857 26.0855 14.7147C23.9964 15.4556 22.8326 14.6568 22.8218 12.4485C22.8073 9.92928 22.8218 7.41009 22.8218 4.68126L22.8109 4.68488ZM98.394 92.6868C97.035 92.6868 95.8169 92.5964 94.6314 92.741C94.2664 92.7844 93.7062 93.4747 93.7025 93.8723C93.6447 100.494 93.6628 107.115 93.6592 113.733C93.6592 114.528 94.0061 114.839 94.8158 114.839C101.448 114.821 108.084 114.821 114.716 114.839C115.504 114.839 115.88 114.586 115.876 113.758C115.862 107.094 115.884 100.425 115.83 93.7602C115.83 93.4024 115.291 92.7735 114.955 92.7374C113.762 92.6109 112.544 92.6868 111.268 92.6868C111.239 93.2145 111.196 93.6084 111.196 93.9988C111.189 96.2975 111.225 98.5926 111.178 100.891C111.145 102.507 109.967 103.327 108.42 102.894C108.03 102.785 107.629 102.673 107.282 102.474C105.623 101.542 103.978 101.509 102.319 102.467C102.167 102.558 101.983 102.594 101.813 102.655C99.4855 103.497 98.4048 102.735 98.394 100.233C98.3867 97.7685 98.394 95.3072 98.394 92.6868ZM34.8358 103.718C34.8358 100.519 34.8105 97.3203 34.8503 94.1217C34.8611 93.1096 34.5611 92.6542 33.4696 92.6615C28.8216 92.7012 24.1699 92.6976 19.5219 92.6615C18.4557 92.6542 18.1123 93.0482 18.1159 94.0927C18.1484 100.533 18.1484 106.978 18.1159 113.419C18.1123 114.438 18.387 114.861 19.493 114.85C24.141 114.799 28.7927 114.803 33.4407 114.85C34.5105 114.861 34.8647 114.499 34.8503 113.448C34.8033 110.205 34.8322 106.96 34.8322 103.718H34.8358ZM102.536 97.6709H107.054V92.7591H102.536V97.6709ZM31.489 4.79331H26.971V9.64013H31.489V4.79331ZM31.4528 53.9266V49.087H26.9313V53.9266H31.4528Z" fill="#013B82"/>
</svg>
