<svg width="205" height="23" viewBox="0 0 205 23" fill="yellow" xmlns="http://www.w3.org/2000/svg">
<path d="M16.7431 10.4865C16.4682 10.969 16.2405 11.3857 15.9955 11.7938C14.6905 13.9667 13.4265 16.1682 12.0506 18.2965C11.4697 19.1945 10.7009 19.9932 9.92707 20.7436C7.48877 23.1088 2.38451 22.8149 0.710044 18.6165C0.287073 17.5536 0.0507073 16.4547 0.0133864 15.3211C-0.114749 11.4948 0.668991 7.87694 2.71045 4.6026C3.27648 3.69348 3.97936 2.83148 4.7631 2.10095C7.67413 -0.610301 11.3826 -0.700841 14.4454 1.84918C15.2975 2.55862 16.0203 3.42185 16.7991 4.21811C16.9272 4.34958 17.0355 4.49966 17.1835 4.67826C17.5032 4.28261 17.7844 3.89812 18.1053 3.5496C18.6502 2.95799 19.1839 2.34901 19.7848 1.81693C22.4097 -0.509838 25.5844 -0.571852 28.325 1.63089C30.3105 3.22589 31.5309 5.34181 32.3594 7.69586C33.3111 10.4009 33.698 13.194 33.382 16.0492C33.2788 16.9893 33.0461 17.9468 32.6879 18.8212C31.3281 22.1377 27.4206 23.2726 24.4262 21.2695C22.9894 20.3083 21.9743 18.9514 21.0674 17.5263C19.6902 15.3596 18.379 13.1519 17.0392 10.9615C16.9583 10.8301 16.8762 10.6998 16.7431 10.4877V10.4865ZM30.3939 14.3388C30.2234 11.9513 29.905 10.0549 29.2207 8.18701C28.6025 6.49775 27.7752 4.93252 26.3147 3.7989C24.6502 2.50653 22.7879 2.5549 21.2515 3.98866C20.5884 4.60756 20.0137 5.32941 19.4613 6.05125C18.7958 6.92193 18.8244 6.94301 19.4178 7.8447C19.5285 8.01213 19.6355 8.18329 19.7412 8.35321C21.3286 10.8983 22.8948 13.4557 24.5133 15.9797C24.9686 16.6891 25.5098 17.3738 26.1306 17.9406C27.494 19.1846 29.4024 18.6761 29.9473 16.9223C30.2048 16.095 30.2508 15.2008 30.3914 14.3376L30.3939 14.3388ZM3.60988 14.1751C3.6049 15.3744 3.67955 16.3109 4.09008 17.1865C4.58396 18.2395 5.46597 18.7046 6.62168 18.5607C7.37556 18.4665 7.95901 18.0646 8.43796 17.5251C8.97165 16.926 9.49663 16.3071 9.942 15.6423C11.461 13.3664 12.9438 11.0657 14.4392 8.77367C14.8456 8.15022 14.8223 7.54165 14.3695 6.94797C13.643 6.0004 12.8879 5.07763 11.8889 4.39299C10.2978 3.30279 8.57605 3.39085 7.179 4.70802C6.63412 5.2215 6.14397 5.82676 5.75459 6.4655C4.26673 8.9039 3.70194 11.6052 3.60864 14.1751H3.60988Z" fill="white" fill-opacity="0.8"/>
<path d="M67.6401 9.17017C65.5763 9.17017 63.7513 8.51778 62.0395 7.27378C62.0395 7.47595 62.0395 7.60742 62.0395 7.73889C62.0482 10.2368 62.0681 12.7335 62.0644 15.2314C62.0594 18.5331 59.957 21.2096 56.7536 22.0207C52.9692 22.9795 49.1115 20.5708 48.283 16.7346C47.4756 12.994 50.0035 9.26691 53.8301 8.60584C54.5691 8.47809 55.3354 8.50166 56.1229 8.45329V12.1878C55.884 12.1543 55.6427 12.1084 55.3976 12.0886C53.5925 11.941 52.0773 13.18 51.8347 14.9958C51.617 16.6317 52.8585 18.2937 54.5069 18.5703C56.302 18.8729 57.964 17.769 58.3298 16.014C58.3957 15.6953 58.4044 15.3592 58.4057 15.0305C58.4119 10.2008 58.4131 5.37119 58.4156 0.540293C58.4156 0.377816 58.4156 0.215339 58.4156 0.0292969H62.0059C62.0967 2.98489 64.3944 5.47041 67.6413 5.5932V9.16893L67.6401 9.17017Z" fill="white" fill-opacity="0.8"/>
<path d="M113.689 9.19085V13.1052C113.673 13.2044 113.648 13.3024 113.64 13.4016C113.513 15.0983 113.399 16.795 113.258 18.4905C113.138 19.954 111.782 21.3307 110.336 21.4808C109.046 21.616 107.756 21.7499 106.464 21.8678C103.571 22.1319 100.671 22.2336 97.7665 22.2299C93.7557 22.225 89.7624 21.9496 85.7778 21.5044C84.2663 21.3357 82.8667 20.0545 82.7249 18.5736C82.5383 16.6375 82.3865 14.6952 82.3107 12.7529C82.1925 9.74525 82.3754 6.74377 82.7112 3.75221C82.873 2.30481 84.224 0.939256 85.6571 0.815228C88.2111 0.593217 90.7651 0.350122 93.3228 0.188886C96.826 -0.0318845 100.333 0.0140059 103.834 0.239737C105.973 0.377408 108.108 0.613062 110.244 0.807786C111.731 0.942977 113.114 2.26388 113.252 3.74477C113.408 5.41791 113.51 7.09601 113.637 8.77163C113.648 8.91179 113.671 9.0507 113.69 9.19085H113.689ZM95.3792 5.93759V16.3597C98.0078 14.6134 100.597 12.8918 103.219 11.1493C100.59 9.4017 98.0103 7.68639 95.3792 5.93759Z" fill="white" fill-opacity="0.8"/>
<path d="M128.506 16.8595C128.506 13.0932 128.506 9.32755 128.506 5.56132C128.54 5.36936 128.566 5.17576 128.609 4.98599C129.165 2.53934 130.6 0.929081 132.963 0.214445C133.28 0.119014 133.61 0.0702021 133.935 0C137.611 0 141.286 0 144.962 0C145.329 0.0806227 145.7 0.143146 146.061 0.244062C148.578 0.945534 150.383 3.39932 150.389 6.1361C150.395 9.51512 150.402 12.8936 150.38 16.2726C150.376 16.8479 150.287 17.4375 150.142 17.9948C149.471 20.5703 147.072 22.4131 144.412 22.4191C141.107 22.4268 137.802 22.4318 134.497 22.4104C133.943 22.4065 133.367 22.3336 132.838 22.1674C130.672 21.4846 129.288 19.995 128.685 17.7551C128.606 17.4617 128.565 17.1578 128.506 16.8595ZM139.448 17.3476C142.752 17.3481 145.428 14.6119 145.439 11.2219C145.45 7.83411 142.761 5.07375 139.449 5.0732C136.145 5.07265 133.469 7.80888 133.458 11.1989C133.447 14.5867 136.136 17.347 139.448 17.3476ZM147.619 4.69586C147.622 3.66586 146.811 2.83605 145.805 2.8388C144.812 2.84154 143.994 3.65435 143.996 4.6816C143.997 5.70063 144.74 6.53921 145.801 6.54963C146.856 6.56005 147.621 5.68801 147.619 4.69641V4.69586Z" fill="white" fill-opacity="0.8"/>
<path d="M144.156 11.2148C144.15 13.8857 142.043 16.0401 139.444 16.0335C136.837 16.0269 134.734 13.8682 134.74 11.2054C134.746 8.53448 136.853 6.38015 139.453 6.38673C142.06 6.39332 144.163 8.55203 144.156 11.2153V11.2148Z" fill="white" fill-opacity="0.8"/>
<path d="M146.339 4.69227C146.339 4.98405 146.094 5.24127 145.815 5.24456C145.537 5.24785 145.265 4.9665 145.271 4.6824C145.278 4.39501 145.529 4.14875 145.814 4.1504C146.106 4.15204 146.339 4.39282 146.339 4.69227H146.339Z" fill="white" fill-opacity="0.8"/>
<path d="M188.105 5.25447C188.105 6.56545 188.078 7.87767 188.119 9.18741C188.136 9.71701 188.162 10.3706 188.784 10.5703C189.377 10.7601 189.67 10.1945 190 9.83359C191.944 7.69783 193.35 5.23339 194.435 2.57671C194.564 2.2592 194.686 1.93672 194.84 1.63161C195.068 1.18263 195.44 0.919691 195.956 0.918451C198.27 0.91473 200.585 0.888684 202.899 0.930854C204.018 0.951939 204.456 1.54603 204.018 2.56554C203.504 3.76118 202.869 4.92332 202.145 6.00608C201.089 7.58372 199.905 9.07826 198.775 10.6075C197.5 12.3352 197.52 12.7061 199.023 14.1907C200.665 15.813 202.367 17.3807 203.637 19.3317C203.769 19.5351 203.907 19.7372 204.008 19.9568C204.484 21.0048 204.019 21.935 202.879 22.1384C202.325 22.2376 201.749 22.2488 201.182 22.2463C199.762 22.2401 198.341 22.2079 196.92 22.1794C195.724 22.1558 194.714 21.6919 193.886 20.8411C193.039 19.9704 192.218 19.0749 191.37 18.2043C191.06 17.8867 190.729 17.5791 190.368 17.3237C189.607 16.7829 188.873 17.0272 188.631 17.9302C188.413 18.7475 188.251 19.5834 188.129 20.4206C187.956 21.6051 187.522 22.0392 186.321 22.1186C181.006 22.4696 176.744 20.4603 173.431 16.3786C170.362 12.5969 168.075 8.35022 166.056 3.9497C165.804 3.39901 165.532 2.85577 165.313 2.29144C164.987 1.45301 165.358 0.853956 166.243 0.851476C168.171 0.845274 170.1 0.863879 172.027 0.919691C172.914 0.945737 173.453 1.49766 173.773 2.30012C174.81 4.90472 176.174 7.32822 177.904 9.54089C178.151 9.85592 178.443 10.1499 178.759 10.3942C179.404 10.894 179.875 10.7502 180.049 9.97126C180.219 9.20725 180.374 8.42215 180.393 7.64326C180.425 6.35212 180.362 5.05851 180.301 3.76738C180.25 2.66477 179.747 2.0868 178.666 1.78789C177.997 1.60309 177.867 1.2372 178.413 0.801864C178.836 0.465748 179.395 0.12219 179.905 0.103586C181.991 0.0291692 184.082 0.0229678 186.168 0.0998653C187.514 0.149477 188.053 0.764656 188.11 2.10168C188.155 3.14972 188.119 4.20148 188.119 5.25199C188.114 5.25199 188.109 5.25199 188.103 5.25199L188.105 5.25447Z" fill="white" fill-opacity="0.8"/>
</svg>
