<svg width="66" height="33" viewBox="0 0 66 33" fill="none" xmlns="http://www.w3.org/2000/svg">
<rect width="66" height="33" rx="16.5" fill="white"/>
<circle cx="49.4983" cy="16.4992" r="15.0652" transform="rotate(-180 49.4983 16.4992)" fill="#013B82"/>
<path d="M6.01078 21.1738V10.6738H9.94078C10.8308 10.6738 11.5958 10.8188 12.2358 11.1088C12.8758 11.3888 13.3658 11.7988 13.7058 12.3388C14.0558 12.8688 14.2308 13.5138 14.2308 14.2738C14.2308 15.0138 14.0558 15.6538 13.7058 16.1938C13.3658 16.7238 12.8758 17.1338 12.2358 17.4238C11.5958 17.7038 10.8308 17.8438 9.94078 17.8438H6.62578L7.12078 17.3338V21.1738H6.01078ZM13.1808 21.1738L10.4808 17.3638H11.6808L14.3958 21.1738H13.1808ZM7.12078 17.4238L6.62578 16.8988H9.91078C10.9608 16.8988 11.7558 16.6688 12.2958 16.2088C12.8458 15.7488 13.1208 15.1038 13.1208 14.2738C13.1208 13.4338 12.8458 12.7838 12.2958 12.3238C11.7558 11.8638 10.9608 11.6338 9.91078 11.6338H6.62578L7.12078 11.1088V17.4238ZM21.0806 21.2638C19.7406 21.2638 18.6856 20.8788 17.9156 20.1088C17.1456 19.3388 16.7606 18.1988 16.7606 16.6888V10.6738H17.8706V16.6438C17.8706 17.8838 18.1506 18.7988 18.7106 19.3888C19.2706 19.9788 20.0606 20.2738 21.0806 20.2738C22.1106 20.2738 22.9056 19.9788 23.4656 19.3888C24.0256 18.7988 24.3056 17.8838 24.3056 16.6438V10.6738H25.3856V16.6888C25.3856 18.1988 25.0006 19.3388 24.2306 20.1088C23.4706 20.8788 22.4206 21.2638 21.0806 21.2638Z" fill="#AAAEB3"/>
<path d="M42.1485 18.525L42.0435 16.215L47.5485 10.5H49.7385L45.1635 15.36L44.0835 16.545L42.1485 18.525ZM40.4085 21V10.5H42.3585V21H40.4085ZM47.7285 21L43.7085 16.215L44.9985 14.79L50.0085 21H47.7285ZM50.5413 21V19.695L57.3213 11.415L57.5463 12.15H50.6463V10.5H59.3013V11.805L52.5213 20.085L52.2813 19.35H59.4963V21H50.5413Z" fill="white"/>
</svg>
