<svg width="40" height="40" viewBox="0 0 40 40" fill="none" xmlns="http://www.w3.org/2000/svg">
<path fill-rule="evenodd" clip-rule="evenodd" d="M3.63636 20C3.63636 17.8511 4.05962 15.7232 4.88197 13.7379C5.70432 11.7526 6.90966 9.94867 8.42916 8.42916C9.94867 6.90966 11.7526 5.70432 13.7379 4.88197C15.7232 4.05962 17.8511 3.63636 20 3.63636C22.1489 3.63636 24.2768 4.05962 26.2621 4.88197C28.2474 5.70432 30.0513 6.90966 31.5708 8.42916C33.0903 9.94867 34.2957 11.7526 35.118 13.7379C35.9404 15.7232 36.3636 17.8511 36.3636 20C36.3636 24.3399 34.6396 28.5021 31.5708 31.5708C28.5021 34.6396 24.3399 36.3636 20 36.3636C15.6601 36.3636 11.4979 34.6396 8.42916 31.5708C5.36038 28.5021 3.63636 24.3399 3.63636 20ZM20 0C8.95455 0 0 8.95455 0 20C0 31.0455 8.95455 40 20 40C31.0455 40 40 31.0455 40 20C40 8.95455 31.0455 0 20 0ZM17.6491 9.62364C17.3062 9.29244 16.8469 9.10918 16.3702 9.11332C15.8935 9.11746 15.4374 9.30868 15.1003 9.64578C14.7632 9.98289 14.572 10.4389 14.5679 10.9156C14.5637 11.3924 14.747 11.8516 15.0782 12.1945L22.8836 20L15.0782 27.8055C14.9045 27.9732 14.766 28.1738 14.6707 28.3956C14.5754 28.6175 14.5253 28.856 14.5232 29.0975C14.5211 29.3389 14.5671 29.5783 14.6585 29.8017C14.7499 30.0252 14.8849 30.2282 15.0556 30.3989C15.2264 30.5696 15.4294 30.7046 15.6528 30.796C15.8763 30.8875 16.1157 30.9335 16.3571 30.9314C16.5985 30.9293 16.8371 30.8791 17.0589 30.7838C17.2807 30.6885 17.4814 30.55 17.6491 30.3764L26.74 21.2855C27.0809 20.9445 27.2723 20.4821 27.2723 20C27.2723 19.5179 27.0809 19.0555 26.74 18.7145L17.6491 9.62364Z" fill="#010144"/>
</svg>
