<svg width="35" height="30" viewBox="0 0 35 30" fill="none" xmlns="http://www.w3.org/2000/svg">
<path d="M1.77727 11.0183C1.59577 11.0183 1.41937 11.0214 1.24399 11.0183C0.523086 11.0006 0 10.4769 0 9.77573C0 9.07046 0.517988 8.53943 1.24195 8.53631C3.04879 8.52905 4.85563 8.52698 6.66247 8.54046C6.93981 8.54254 7.0897 8.45645 7.23144 8.21376C8.64061 5.80234 10.0671 3.40129 11.4804 0.991942C11.775 0.488914 12.1768 0.194358 12.76 0.26696C13.6686 0.380011 14.1111 1.34665 13.6319 2.17535C12.8589 3.51226 12.0657 4.83777 11.2815 6.16846C10.8319 6.93181 10.3822 7.69413 9.90601 8.50209H25.0847C25.0092 8.36518 24.947 8.24591 24.8787 8.13078C23.7153 6.15705 22.5468 4.18642 21.3894 2.20958C20.8918 1.3591 21.317 0.383123 22.2388 0.26696C22.8017 0.196432 23.2095 0.466096 23.4981 0.958752C24.4474 2.57985 25.4059 4.1968 26.3603 5.81478C26.8375 6.62377 27.3239 7.42758 27.7878 8.24487C27.9122 8.46475 28.0488 8.5415 28.2987 8.53943C30.1177 8.52802 31.9378 8.52906 33.7569 8.53528C34.4115 8.53735 34.9316 9.00719 34.9927 9.62016C35.058 10.2756 34.6787 10.8347 34.0587 10.983C33.9364 11.012 33.8069 11.012 33.6804 11.0162C33.5305 11.0214 33.3796 11.0172 33.2002 11.0172C33.0544 11.9206 32.9126 12.798 32.7709 13.6755C32.1418 17.5784 31.531 21.4843 30.8753 25.3831C30.4858 27.7001 28.7351 29.2268 26.4327 29.2372C20.4779 29.2621 14.523 29.2621 8.56923 29.2372C6.19036 29.2268 4.45898 27.5995 4.07151 25.157C3.33429 20.5125 2.58484 15.8691 1.83947 11.2267C1.82927 11.1655 1.80378 11.1064 1.77727 11.0183ZM4.29991 11.0359C4.30705 11.1292 4.30603 11.205 4.31827 11.2786C5.04834 15.8193 5.78148 20.3611 6.50952 24.9018C6.69204 26.0417 7.49349 26.7584 8.64775 26.7594C14.5516 26.7646 20.4554 26.7646 26.3593 26.7594C27.5288 26.7584 28.3078 26.0354 28.4965 24.8562C29.093 21.1182 29.6997 17.3813 30.3013 13.6444C30.4399 12.7815 30.5745 11.9175 30.7142 11.0359H4.29991Z" fill="#545D66"/>
<path d="M18.7199 18.919C18.7199 19.9655 18.722 21.012 18.7199 22.0585C18.7179 22.8779 18.2142 23.4421 17.4953 23.44C16.7775 23.438 16.2789 22.8727 16.2789 22.0502C16.2768 19.9313 16.2768 17.8124 16.2789 15.6934C16.2789 14.8917 16.7693 14.3472 17.4831 14.3399C18.2142 14.3327 18.7179 14.8834 18.7199 15.7017C18.723 16.7742 18.7199 17.8466 18.7199 18.919Z" fill="#545D66"/>
<path d="M12.2113 18.8724C12.2113 19.9573 12.2194 21.0432 12.2082 22.1281C12.2021 22.7649 11.8707 23.2171 11.3252 23.3862C10.8347 23.5387 10.3055 23.382 10.018 22.9267C9.87623 22.7017 9.7814 22.403 9.77936 22.1364C9.76101 19.9666 9.76407 17.7958 9.7712 15.625C9.77324 14.87 10.2678 14.3504 10.9601 14.34C11.6647 14.3296 12.1949 14.8534 12.2072 15.6168C12.2235 16.7016 12.2113 17.7865 12.2113 18.8724Z" fill="#545D66"/>
<path d="M25.2308 18.9235C25.2308 19.97 25.2339 21.0166 25.2298 22.0631C25.2267 22.8866 24.7251 23.4446 24.0052 23.4394C23.3026 23.4342 22.7918 22.8772 22.7897 22.0828C22.7836 19.9379 22.7836 17.7941 22.7897 15.6492C22.7918 14.9709 23.1986 14.4585 23.7758 14.3569C24.3814 14.2501 24.9443 14.5581 25.1472 15.1389C25.2135 15.3277 25.2257 15.5434 25.2267 15.7467C25.2339 16.8056 25.2298 17.8656 25.2298 18.9246L25.2308 18.9235Z" fill="#545D66"/>
</svg>
