<svg width="40" height="40" viewBox="0 0 40 40" fill="none" xmlns="http://www.w3.org/2000/svg">
<path fill-rule="evenodd" clip-rule="evenodd" d="M36.3636 20C36.3636 22.1489 35.9404 24.2768 35.118 26.2621C34.2957 28.2474 33.0903 30.0513 31.5708 31.5708C30.0513 33.0903 28.2474 34.2957 26.2621 35.118C24.2768 35.9404 22.1489 36.3636 20 36.3636C17.8511 36.3636 15.7232 35.9404 13.7379 35.118C11.7526 34.2957 9.94867 33.0903 8.42916 31.5708C6.90966 30.0513 5.70432 28.2474 4.88197 26.2621C4.05962 24.2768 3.63637 22.1489 3.63637 20C3.63637 15.6601 5.36039 11.4979 8.42917 8.42916C11.4979 5.36038 15.6601 3.63636 20 3.63636C24.3399 3.63636 28.5021 5.36038 31.5708 8.42916C34.6396 11.4979 36.3636 15.6601 36.3636 20ZM20 40C31.0455 40 40 31.0455 40 20C40 8.95454 31.0455 -7.82831e-07 20 -1.74846e-06C8.95455 -2.71408e-06 2.71408e-06 8.95454 1.74846e-06 20C7.82831e-07 31.0455 8.95454 40 20 40ZM22.3509 30.3764C22.6938 30.7076 23.1531 30.8908 23.6298 30.8867C24.1065 30.8825 24.5626 30.6913 24.8997 30.3542C25.2368 30.0171 25.428 29.5611 25.4321 29.0844C25.4363 28.6076 25.253 28.1484 24.9218 27.8055L17.1164 20L24.9218 12.1945C25.0955 12.0268 25.234 11.8262 25.3293 11.6044C25.4246 11.3825 25.4747 11.144 25.4768 10.9025C25.4789 10.6611 25.4329 10.4217 25.3415 10.1983C25.2501 9.97482 25.1151 9.77181 24.9444 9.6011C24.7736 9.43038 24.5706 9.29538 24.3472 9.20396C24.1237 9.11254 23.8843 9.06653 23.6429 9.06863C23.4015 9.07073 23.1629 9.12089 22.9411 9.21618C22.7193 9.31147 22.5186 9.44998 22.3509 9.62363L13.26 18.7145C12.9191 19.0555 12.7277 19.5179 12.7277 20C12.7277 20.4821 12.9191 20.9445 13.26 21.2855L22.3509 30.3764Z" fill="#010144"/>
</svg>
