<svg width="35" height="36" viewBox="0 0 35 36" fill="none" xmlns="http://www.w3.org/2000/svg">
<path d="M0.266602 26.4053C0.266602 20.5066 0.266602 14.6088 0.266602 8.71013C0.319422 8.40949 0.360505 8.10626 0.427578 7.80905C1.2987 3.97711 3.54566 1.45512 7.24644 0.335864C7.74279 0.1864 8.26009 0.10995 8.76817 0C14.5256 0 20.2822 0 26.0396 0C26.6139 0.126271 27.195 0.224196 27.7609 0.382249C31.7031 1.48089 34.5303 5.324 34.5387 9.61035C34.5487 14.9026 34.5588 20.1939 34.5244 25.4862C34.5185 26.3872 34.3794 27.3106 34.1522 28.1834C33.1008 32.2172 29.3447 35.1034 25.1777 35.1128C20.0013 35.1248 14.8249 35.1326 9.64935 35.0991C8.78075 35.0931 7.87861 34.9788 7.05109 34.7185C3.65885 33.6491 1.49153 31.3161 0.546634 27.808C0.422548 27.3484 0.357989 26.8726 0.266602 26.4053ZM17.4031 27.1698C22.5778 27.1706 26.769 22.8851 26.7858 17.5757C26.8034 12.2698 22.592 7.94649 17.4047 7.94563C12.23 7.94477 8.03875 12.2303 8.02198 17.5397C8.00437 22.8456 12.2158 27.1689 17.4031 27.1698ZM30.2015 7.35465C30.2049 5.74147 28.9355 4.44182 27.3601 4.44612C25.8049 4.45041 24.5237 5.72343 24.5263 7.33232C24.5288 8.92831 25.6917 10.2417 27.3534 10.258C29.0051 10.2743 30.204 8.90856 30.2015 7.35551V7.35465Z" fill="#013B82" fill-opacity="0.35"/>
<path d="M24.7771 17.5656C24.7671 21.7489 21.4679 25.123 17.3965 25.1127C13.3142 25.1023 10.0193 21.7214 10.0293 17.551C10.0394 13.3677 13.3394 9.99362 17.4108 10.0039C21.4939 10.0142 24.7872 13.3952 24.7771 17.5665V17.5656Z" fill="#013B82" fill-opacity="0.35"/>
<path d="M28.1954 7.35065C28.1954 7.80763 27.8131 8.21049 27.3754 8.21565C26.9395 8.2208 26.5136 7.78014 26.5236 7.33518C26.5337 6.88507 26.9269 6.49939 27.3746 6.50197C27.8315 6.50454 28.1963 6.88164 28.1963 7.35065H28.1954Z" fill="#013B82" fill-opacity="0.35"/>
</svg>
