<svg width="35" height="35" viewBox="0 0 35 35" fill="none" xmlns="http://www.w3.org/2000/svg">
<path d="M3.93794 3.83984L5.03746 2.74031C5.99861 1.77917 7.55694 1.77916 8.51809 2.74031L13.8484 8.07067C14.239 8.4612 14.239 9.09436 13.8484 9.48488L11.4414 11.892C10.9787 12.3546 10.864 13.0614 11.1566 13.6466L11.2604 13.8542C13.3993 18.132 16.868 21.6007 21.1458 23.7396C21.855 24.0942 22.7115 23.9552 23.2721 23.3945L24.4556 22.2111C25.4313 21.2354 27.0132 21.2354 27.9889 22.2111L32.2597 26.4819C33.2208 27.4431 33.2208 29.0014 32.2597 29.9625L31.1602 31.0621C28.3268 33.8954 23.8412 34.2142 20.6356 31.81C14.0232 26.8507 8.14926 20.9768 3.18998 14.3644C0.785787 11.1588 1.10457 6.67321 3.93794 3.83984Z" stroke="#013B82" stroke-width="2.7"/>
</svg>
