<svg width="31" height="35" viewBox="0 0 31 35" fill="none" xmlns="http://www.w3.org/2000/svg">
<path d="M30.9374 14.3613C27.705 14.3613 24.8467 13.3396 22.1657 11.3912C22.1657 11.7079 22.1657 11.9138 22.1657 12.1197C22.1794 16.0319 22.2105 19.9422 22.2047 23.8545C22.1969 29.0255 18.9041 33.2174 13.887 34.4879C7.95996 35.9894 1.91797 32.217 0.620339 26.2088C-0.644172 20.3501 3.31497 14.5129 9.30825 13.4775C10.4656 13.2774 11.6658 13.3143 12.8991 13.2386V19.0875C12.5251 19.0351 12.1471 18.9632 11.7632 18.9321C8.93611 18.7009 6.56295 20.6415 6.18302 23.4854C5.84205 26.0476 7.78655 28.6506 10.3682 29.0837C13.1797 29.5577 15.7828 27.8289 16.3556 25.0802C16.4589 24.581 16.4725 24.0545 16.4745 23.5398C16.4842 15.9756 16.4861 8.41138 16.49 0.845243C16.49 0.590772 16.49 0.336301 16.49 0.0449219H22.1131C22.2554 4.67396 25.8541 8.56678 30.9394 8.75909V14.3594L30.9374 14.3613Z" fill="#013B82" fill-opacity="0.35"/>
</svg>
