<svg width="62" height="35" viewBox="0 0 62 35" fill="none" xmlns="http://www.w3.org/2000/svg">
<path d="M36.6101 8.23146C36.6101 10.2847 36.5672 12.3399 36.6315 14.3912C36.6588 15.2207 36.6997 16.2444 37.6739 16.5571C38.6013 16.8543 39.0611 15.9685 39.5775 15.4033C42.6228 12.0582 44.8245 8.19843 46.5235 4.03754C46.7261 3.54026 46.9171 3.0352 47.1587 2.55734C47.5152 1.85414 48.0978 1.44233 48.9064 1.44039C52.5304 1.43456 56.1564 1.39376 59.7804 1.45981C61.532 1.49283 62.2179 2.4233 61.532 4.02006C60.7273 5.89266 59.7337 7.7128 58.5997 9.40863C56.9455 11.8795 55.0906 14.2203 53.3215 16.6154C51.3244 19.3213 51.3555 19.9022 53.7092 22.2274C56.2811 24.7682 58.9465 27.2235 60.9358 30.2791C61.1423 30.5977 61.3586 30.9143 61.5164 31.2582C62.2627 32.8996 61.534 34.3565 59.7492 34.6751C58.8803 34.8305 57.9781 34.848 57.0916 34.8441C54.8666 34.8344 52.6415 34.7839 50.4164 34.7392C48.542 34.7023 46.9599 33.9758 45.6643 32.6432C44.3374 31.2795 43.0515 29.877 41.7226 28.5134C41.2375 28.0161 40.7192 27.5343 40.1542 27.1342C38.9618 26.2872 37.8122 26.6699 37.4342 28.0841C37.0913 29.3642 36.838 30.6735 36.6471 31.9847C36.3762 33.8398 35.6963 34.5197 33.8161 34.644C25.4905 35.1937 18.8153 32.0468 13.6267 25.654C8.82004 19.7312 5.23888 13.08 2.07663 6.18792C1.6811 5.32544 1.25636 4.47461 0.91344 3.59076C0.402959 2.27761 0.983577 1.33937 2.36889 1.33549C5.38891 1.32578 8.41087 1.35491 11.4289 1.44233C12.8182 1.48312 13.6618 2.34755 14.1626 3.60436C15.7875 7.68367 17.923 11.4794 20.6332 14.9448C21.019 15.4382 21.4768 15.8986 21.9717 16.2813C22.9829 17.0641 23.7194 16.8388 23.9922 15.6189C24.2591 14.4223 24.5008 13.1927 24.5319 11.9728C24.5806 9.95059 24.4832 7.92454 24.3877 5.90237C24.3079 4.17546 23.5188 3.27025 21.8256 2.8021C20.7793 2.51266 20.5747 1.93961 21.4301 1.25779C22.0925 0.731363 22.9674 0.193283 23.7662 0.164145C27.0337 0.0475938 30.3089 0.0378812 33.5764 0.158318C35.6846 0.236019 36.5282 1.19951 36.6179 3.29356C36.688 4.93499 36.6315 6.58225 36.6315 8.22757C36.6237 8.22757 36.6159 8.22757 36.6062 8.22757L36.6101 8.23146Z" fill="#013B82" fill-opacity="0.35"/>
</svg>
