<svg width="51" height="35" viewBox="0 0 51 35" fill="none" xmlns="http://www.w3.org/2000/svg">
<path d="M50.0592 14.3966V20.5272C50.0339 20.6826 49.995 20.8361 49.9833 20.9915C49.7845 23.6488 49.6053 26.3062 49.3851 28.9617C49.1961 31.2538 47.0724 33.41 44.8083 33.6451C42.7878 33.8568 40.7673 34.0666 38.743 34.2512C34.2129 34.6649 29.6712 34.8242 25.1217 34.8184C18.8401 34.8106 12.5857 34.3794 6.34498 33.682C3.97767 33.4178 1.78573 31.4112 1.56361 29.0918C1.27135 26.0595 1.03364 23.0175 0.914789 19.9755C0.729691 15.2649 1.01611 10.564 1.54218 5.87862C1.79547 3.61169 3.91143 1.47297 6.15599 1.27872C10.156 0.931005 14.1561 0.55027 18.162 0.297741C23.6487 -0.0480284 29.1412 0.0238451 34.624 0.377385C37.9753 0.593005 41.3187 0.962085 44.6641 1.26706C46.9925 1.4788 49.1591 3.54759 49.3754 5.86696C49.6189 8.48743 49.7787 11.1157 49.9774 13.74C49.995 13.9595 50.032 14.1771 50.0612 14.3966H50.0592ZM21.3827 9.30135V25.6244C25.4997 22.8893 29.5543 20.1931 33.6615 17.4638C29.5446 14.7268 25.5036 12.0403 21.3827 9.30135Z" fill="#013B82" fill-opacity="0.35"/>
</svg>
