<svg width="16" height="13" viewBox="0 0 16 13" fill="none" xmlns="http://www.w3.org/2000/svg">
<path d="M0.812466 4.82453C0.729495 4.82453 0.648854 4.82592 0.56868 4.82453C0.239125 4.81662 0 4.58183 0 4.26753C0 3.95137 0.236795 3.71332 0.567747 3.71193C1.39373 3.70867 2.21972 3.70774 3.0457 3.71379C3.17249 3.71472 3.24101 3.67613 3.3058 3.56733C3.94999 2.48635 4.60211 1.41002 5.24817 0.329968C5.38288 0.104473 5.56653 -0.0275697 5.83316 0.00497602C6.24848 0.0556543 6.45079 0.488977 6.2317 0.860462C5.87838 1.45977 5.51573 2.05396 5.15727 2.65047C4.95171 2.99267 4.74614 3.3344 4.52846 3.69659H11.4673C11.4328 3.63521 11.4044 3.58175 11.3731 3.53014C10.8413 2.64536 10.3071 1.76198 9.77803 0.875805C9.55056 0.494556 9.74493 0.0570491 10.1663 0.00497602C10.4236 -0.0266398 10.6101 0.0942442 10.742 0.31509C11.176 1.04179 11.6141 1.76663 12.0504 2.49193C12.2686 2.85458 12.4909 3.21491 12.703 3.58128C12.7599 3.67985 12.8223 3.71425 12.9365 3.71332C13.7681 3.70821 14.6002 3.70867 15.4317 3.71146C15.731 3.71239 15.9687 3.92301 15.9967 4.19779C16.0265 4.49163 15.8531 4.74223 15.5697 4.80872C15.5138 4.82174 15.4546 4.82174 15.3968 4.8236C15.3282 4.82592 15.2593 4.82406 15.1772 4.82406C15.1106 5.22902 15.0458 5.62236 14.981 6.0157C14.6934 7.76526 14.4142 9.51622 14.1144 11.2639C13.9364 12.3026 13.136 12.987 12.0835 12.9916C9.36131 13.0028 6.6391 13.0028 3.91736 12.9916C2.82988 12.987 2.03839 12.2575 1.86126 11.1626C1.52425 9.08057 1.18164 6.99904 0.8409 4.91798C0.836239 4.89055 0.824585 4.86405 0.812466 4.82453ZM1.96567 4.83243C1.96894 4.87427 1.96847 4.90821 1.97406 4.94123C2.30781 6.97672 2.64296 9.01269 2.97578 11.0482C3.05922 11.5592 3.4256 11.8804 3.95326 11.8809C6.65215 11.8832 9.35105 11.8832 12.0499 11.8809C12.5846 11.8804 12.9407 11.5564 13.027 11.0277C13.2996 9.35209 13.577 7.67692 13.852 6.00175C13.9154 5.61492 13.9769 5.22763 14.0408 4.83243H1.96567Z" fill="white"/>
<path d="M8.55802 8.36523C8.55802 8.83436 8.55895 9.30348 8.55802 9.7726C8.55709 10.1399 8.32682 10.3928 7.9982 10.3919C7.67004 10.391 7.44211 10.1376 7.44211 9.76888C7.44117 8.81901 7.44117 7.86915 7.44211 6.91928C7.44211 6.55988 7.66631 6.31579 7.99261 6.31253C8.32682 6.30928 8.55709 6.55616 8.55802 6.923C8.55942 7.40374 8.55802 7.88449 8.55802 8.36523Z" fill="white"/>
<path d="M5.58089 8.34435C5.58089 8.83067 5.58462 9.31746 5.57949 9.80379C5.5767 10.0893 5.4252 10.292 5.17582 10.3678C4.95162 10.4361 4.70969 10.3659 4.57824 10.1618C4.51345 10.0609 4.4701 9.927 4.46917 9.80751C4.46078 8.83486 4.46218 7.86174 4.46544 6.88863C4.46637 6.55015 4.69245 6.31722 5.00895 6.31257C5.33105 6.30792 5.57343 6.54271 5.57903 6.88491C5.58649 7.37123 5.58089 7.85756 5.58089 8.34435Z" fill="white"/>
<path d="M11.534 8.36901C11.534 8.83813 11.5354 9.30726 11.5336 9.77638C11.5322 10.1455 11.3028 10.3957 10.9737 10.3934C10.6526 10.391 10.419 10.1414 10.4181 9.78521C10.4153 8.82372 10.4153 7.86269 10.4181 6.9012C10.419 6.59713 10.605 6.36745 10.8689 6.32189C11.1457 6.274 11.403 6.41209 11.4958 6.67245C11.5261 6.75707 11.5317 6.85378 11.5322 6.94491C11.5354 7.41961 11.5336 7.89478 11.5336 8.36948L11.534 8.36901Z" fill="white"/>
</svg>
