<svg width="139" height="136" viewBox="0 0 139 136" fill="none" xmlns="http://www.w3.org/2000/svg">
<path d="M0 106.303C1.77251 101.938 5.6411 102.88 9.20049 102.815C9.72901 100.133 10.2575 97.5086 10.7645 94.8804C13.4933 80.7615 16.2114 66.6426 18.9475 52.5272C19.591 49.2051 21.2161 47.9144 24.6641 47.9144C29.1115 47.9144 33.559 47.9144 38.01 47.9144C38.4918 47.9144 38.9736 47.9144 39.6099 47.9144C39.3115 46.2965 39.0455 44.8584 38.7722 43.3771C36.8847 43.6539 35.1373 44.0099 33.372 44.1573C24.0421 44.9339 16.8586 41.1588 11.6489 33.5798C8.28727 28.6901 6.66937 23.067 5.71301 17.2857C5.12337 13.7119 4.81417 10.0842 4.58407 6.46726C4.41868 3.87142 6.41769 1.76814 8.9632 1.84364C17.8869 2.09891 26.5588 3.51907 34.5585 7.78315C35.3099 8.18224 36.0254 8.64604 36.7624 9.08467C45.5423 2.649 55.7315 1.12098 66.1975 0.632009C69.0774 0.495386 71.2202 2.69574 70.9973 5.57202C70.7241 9.05231 70.2639 12.5182 69.8108 15.9841C69.6347 17.3216 68.6424 17.9867 67.4379 17.7854C66.2874 17.5913 65.669 16.5989 65.8344 15.2507C66.2119 12.1407 66.5714 9.02714 66.949 5.91357C67.046 5.10822 66.8627 4.61206 65.8991 4.6588C58.9134 5.00036 52.0283 5.88481 45.5351 8.65682C43.6547 9.45859 41.9002 10.5516 39.8976 11.6122C42.9069 14.7006 45.0785 17.9939 46.2901 22.0926C47.2752 21.1471 48.1417 20.3237 48.9974 19.4896C50.8921 17.638 52.7797 15.7792 54.6708 13.9276C55.9472 12.6764 57.1516 12.4859 58.0613 13.3811C59.014 14.3195 58.8486 15.4736 57.5543 16.7499C54.3221 19.9282 51.0719 23.0885 47.8649 26.2956C47.4981 26.6623 47.1745 27.2627 47.1566 27.7661C47.0307 31.5448 46.7647 35.2804 44.478 38.9908C46.193 38.7427 47.606 38.6744 48.9435 38.322C55.2821 36.643 59.5174 32.494 62.293 26.7127C62.7388 25.7851 63.084 24.8107 63.5334 23.8831C64.0655 22.7937 65.0794 22.4018 66.1005 22.8153C67.1323 23.236 67.6572 24.2498 67.2474 25.3428C63.8066 34.4606 57.8743 40.8496 47.8828 42.6436C46.2685 42.9349 44.5967 42.8989 42.8853 43.0176C43.1549 44.6283 43.4174 46.2066 43.705 47.918C46.7647 47.918 49.8099 47.918 52.8552 47.918C53.4844 47.918 54.1136 47.9108 54.7427 47.918C57.5435 47.9504 59.316 49.3921 59.8481 52.1174C61.5631 60.9116 63.2601 69.7058 64.9679 78.5C65.0686 79.0142 65.1836 79.5247 65.3203 80.1791C69.2428 77.6264 73.0359 75.16 76.829 72.69C83.635 68.2605 90.4409 63.8238 97.2505 59.3944C99.4653 57.9526 101.482 57.7549 103.107 59.1571C105.016 60.8037 106.602 62.8135 105.912 65.564C105.66 66.5635 104.736 67.394 104.114 68.2964C104.067 68.3647 103.97 68.4007 103.895 68.451C102.579 69.3714 101.263 70.2954 99.9435 71.2159V78.3454C100.436 78.0686 100.781 77.8996 101.101 77.6947C110.205 71.7731 119.373 65.9487 128.372 59.8761C132.507 57.0861 135.433 58.1432 137.569 62.4216C137.745 62.7776 137.9 63.1479 138.065 63.511V65.6646C137.349 67.3401 136.073 68.4762 134.513 69.3355C134.279 69.4649 134.074 69.6591 133.83 69.7633C132.237 70.4501 131.805 71.579 131.813 73.3407C131.892 92.3134 131.863 111.286 131.859 130.259C131.859 132.93 130.579 134.836 128.365 135.357C127.588 135.54 126.761 135.569 125.959 135.569C85.9683 135.58 45.9773 135.565 5.98985 135.605C3.09919 135.605 1.02467 134.681 0.00359535 131.877V106.306L0 106.303ZM90.4589 131.539C91.8539 131.539 93.026 131.47 94.1837 131.557C95.4924 131.654 95.8879 131.136 95.8771 129.856C95.8268 123.801 95.8519 117.747 95.8591 111.689C95.8591 111.153 95.852 110.599 95.9778 110.085C96.2223 109.078 96.9521 108.6 97.9696 108.64C98.9296 108.676 99.5911 109.179 99.7924 110.132C99.9003 110.653 99.8931 111.2 99.8931 111.739C99.9003 117.93 99.8931 124.118 99.9003 130.309C99.9003 130.694 99.9399 131.078 99.9614 131.452H106.926C106.926 130.881 106.926 130.399 106.926 129.917C106.926 126.059 106.911 122.201 106.933 118.344C106.951 114.95 108.799 113.145 112.222 113.127C113.972 113.116 115.727 113.098 117.478 113.134C120.516 113.199 122.404 115.119 122.418 118.16C122.436 122.108 122.422 126.056 122.422 130.003C122.422 130.478 122.422 130.953 122.422 131.542C123.806 131.542 125.014 131.485 126.215 131.56C127.451 131.639 127.84 131.175 127.84 129.931C127.807 111.584 127.818 93.241 127.811 74.8939C127.811 74.5667 127.753 74.2431 127.71 73.8009C127.16 74.1425 126.74 74.3906 126.33 74.6566C118.204 79.9418 110.111 85.2773 101.932 90.4761C100.378 91.4649 99.7062 92.4751 99.8536 94.3267C100.037 96.599 99.9219 98.9 99.8823 101.187C99.8572 102.614 99.1129 103.416 97.9229 103.445C96.6789 103.473 95.9238 102.639 95.8555 101.147C95.8376 100.744 95.8483 100.338 95.8483 99.9355C95.8483 91.7705 95.8483 83.609 95.8483 75.444V73.8189C95.3414 74.0921 95.025 74.2359 94.7374 74.4229C84.505 81.0779 74.2835 87.7473 64.0331 94.3771C63.2673 94.8732 63.1163 95.4341 63.1163 96.2574C63.1379 107.514 63.1307 118.775 63.1343 130.032C63.1343 130.503 63.1774 130.978 63.199 131.449H74.963C74.963 127.008 74.9558 122.662 74.963 118.315C74.9702 115.036 76.8505 113.159 80.1511 113.13C81.8589 113.116 83.5666 113.116 85.2744 113.13C88.5893 113.163 90.423 114.993 90.4481 118.329C90.4733 121.917 90.4553 125.506 90.4553 129.094C90.4553 129.845 90.4553 130.6 90.4553 131.542L90.4589 131.539ZM13.3567 102.815C13.9931 102.815 14.4785 102.815 14.9674 102.815C20.853 102.815 26.7386 102.815 32.6278 102.815C33.5698 102.815 34.5153 102.79 35.4573 102.823C36.7337 102.869 37.557 103.653 37.5822 104.786C37.6073 105.979 36.7696 106.781 35.4142 106.846C35.0546 106.864 34.6951 106.853 34.3356 106.853C26.9651 106.853 19.5982 106.853 12.2278 106.853C9.93754 106.853 7.64371 106.874 5.35347 106.842C4.47621 106.828 4.03038 107.069 4.03398 108.05C4.05915 115.496 4.03398 122.942 4.08791 130.388C4.08791 130.773 4.68474 131.467 5.02629 131.481C7.25901 131.582 9.49531 131.531 11.8826 131.531C11.8826 130.917 11.8826 130.438 11.8826 129.96C11.8826 124.848 11.8826 119.731 11.8826 114.619C11.8826 112.523 12.5154 111.876 14.6007 111.872C23.8587 111.865 33.1131 111.865 42.3712 111.872C44.3989 111.872 45.0353 112.516 45.0389 114.515C45.0461 119.674 45.0389 124.83 45.0389 129.989C45.0389 130.464 45.0389 130.938 45.0389 131.424H58.9709V106.849C54.2754 106.849 49.6949 106.86 45.1144 106.842C43.6475 106.839 42.7666 106.048 42.7666 104.825C42.7666 103.606 43.6547 102.823 45.118 102.815C48.4437 102.797 51.7694 102.808 55.0951 102.808C56.3858 102.808 57.6766 102.808 59.0176 102.808V97.7279C58.446 98.0695 57.9965 98.3392 57.5471 98.6016C55.1778 100 52.5891 99.4537 51.0252 97.2246C50.8706 97.0053 50.7339 96.7716 50.5865 96.5487C48.4185 93.2302 48.8967 90.8752 52.1865 88.7252C55.0052 86.8844 57.806 85.0184 60.6535 83.2243C61.3762 82.7713 61.5955 82.3111 61.4337 81.4842C59.6073 72.165 57.7916 62.8423 56.0227 53.5124C55.7962 52.3223 55.3324 51.9124 54.0848 51.9196C44.2875 51.97 34.4938 51.97 24.6964 51.9196C23.4956 51.9124 23.0893 52.3151 22.87 53.4692C20.2454 67.1963 17.5633 80.9125 14.9027 94.6359C14.385 97.3109 13.8888 99.9858 13.3531 102.808L13.3567 102.815ZM37.1687 39.397C35.9283 36.607 34.1522 34.2161 32.0166 32.0769C27.3534 27.4102 22.6794 22.7506 18.0127 18.0874C16.6249 16.6996 16.4451 15.5851 17.4374 14.6215C18.4297 13.6615 19.4796 13.8557 20.9033 15.2759C22.8125 17.1778 24.7647 19.033 26.6128 20.9925C31.4809 26.1518 37.3125 30.4698 40.8 37.0673C41.4867 35.8952 42.1698 34.7339 42.4718 33.4827C44.683 24.2534 40.7604 15.5671 32.3689 11.1484C25.2609 7.40205 17.5201 6.25513 9.61755 5.85245C8.71872 5.80571 8.54614 6.26232 8.61445 7.01015C8.81219 9.19613 8.90927 11.3965 9.1969 13.5681C9.91956 19.0582 11.1995 24.3973 13.7846 29.3516C18.3578 38.1099 27.9682 42.2697 37.1723 39.397H37.1687ZM102.219 64.453C101.64 63.6764 101.245 62.943 100.648 62.4612C100.44 62.2922 99.6702 62.6553 99.2531 62.925C90.7825 68.4151 82.3263 73.9268 73.8664 79.4312C67.3624 83.6665 60.8512 87.8911 54.3616 92.148C53.959 92.4104 53.4304 92.9138 53.4412 93.2913C53.4808 94.8193 54.9333 95.5096 56.1989 94.6863C62.6669 90.4797 69.1349 86.2696 75.603 82.0594C84.0628 76.5514 92.5227 71.0433 100.975 65.5244C101.396 65.2512 101.745 64.8701 102.226 64.453H102.219ZM99.9039 86.8844C100.231 86.7549 100.364 86.7262 100.472 86.6579C111.405 79.5463 122.332 72.4239 133.28 65.3303C134.207 64.7299 134.027 64.1834 133.502 63.4751C133.006 62.8063 132.715 61.8751 131.561 62.6625C129.749 63.9029 127.886 65.0678 126.046 66.2651C117.669 71.7192 109.291 77.1698 100.932 82.6491C100.501 82.9331 100.033 83.4436 99.9506 83.911C99.796 84.8171 99.9039 85.7698 99.9039 86.888V86.8844ZM86.4106 131.459C86.4106 126.908 86.4106 122.521 86.4106 118.139C86.4106 117.366 85.9611 117.154 85.278 117.157C83.617 117.168 81.9559 117.193 80.2949 117.146C79.2846 117.118 78.9754 117.549 78.9934 118.52C79.0401 121.119 79.0077 123.719 79.0077 126.315C79.0077 128.004 79.0077 129.694 79.0077 131.459H86.407H86.4106ZM118.373 131.535C118.373 126.937 118.395 122.507 118.326 118.081C118.323 117.768 117.686 117.222 117.32 117.204C115.572 117.11 113.821 117.172 112.071 117.157C111.366 117.154 110.974 117.42 110.974 118.175C110.981 122.342 110.96 126.509 111.014 130.676C111.017 130.967 111.549 131.488 111.851 131.499C113.955 131.571 116.058 131.539 118.373 131.539V131.535ZM40.9582 129.097H16.0245V131.424H40.9546V129.097H40.9582ZM40.9474 116.021H16.0317V118.308H40.9438V116.021H40.9474ZM15.9849 124.855H40.9222V122.529H15.9813V124.855H15.9849Z" fill="#013B82"/>
<path d="M34.8391 83.4339C33.7569 83.4339 32.8688 83.4627 31.9772 83.4304C28.9931 83.3153 27.2889 80.4282 28.8169 77.8863C31.5673 73.3238 34.4184 68.8225 37.2731 64.3175C38.2043 62.847 39.7719 62.3149 41.3754 62.7535C42.9107 63.1742 43.9569 64.5224 43.9821 66.2626C44.018 68.9411 43.9928 71.6196 43.9928 74.5031C45.0391 74.5031 45.9667 74.4743 46.8907 74.5103C49.9647 74.6289 51.6042 77.5088 50.0079 80.137C47.2898 84.6168 44.489 89.0427 41.6918 93.4722C40.7391 94.9786 39.1895 95.5934 37.6543 95.1979C35.986 94.7665 34.893 93.4038 34.8571 91.5343C34.8067 88.8989 34.8463 86.2599 34.8463 83.4339H34.8391ZM32.6028 79.4C33.8755 79.4 34.8894 79.4 35.8997 79.4C38.3625 79.4 38.8767 79.9177 38.8767 82.3913C38.8767 84.8649 38.8767 87.3385 38.8767 89.8121C38.9737 89.8337 39.0744 89.8552 39.1715 89.8768C41.4905 86.1592 43.8131 82.438 46.2507 78.5335C44.924 78.5335 43.8958 78.5335 42.8675 78.5335C40.6024 78.5263 39.9589 77.8971 39.9481 75.6896C39.9481 75.1539 39.9481 74.6146 39.9481 74.0789C39.9481 72.1014 39.9481 70.1204 39.9481 68.1429C39.851 68.125 39.7575 68.1106 39.6605 68.0926C37.3522 71.7886 35.0476 75.481 32.5992 79.4H32.6028Z" fill="#013B82"/>
<path d="M51.561 125.33C51.5862 127.47 51.0145 128.368 49.6339 128.404C48.1993 128.44 47.5306 127.462 47.5378 125.312C47.5378 124.91 47.5234 124.5 47.5953 124.108C47.8039 122.99 48.4906 122.346 49.6483 122.393C50.7988 122.44 51.4495 123.101 51.5502 124.255C51.5826 124.611 51.5538 124.971 51.5538 125.33H51.561Z" fill="#013B82"/>
</svg>
