<svg width="147" height="154" viewBox="0 0 147 154" fill="none" xmlns="http://www.w3.org/2000/svg">
<path d="M78.1275 154H69.0813C68.0892 153.883 67.1002 153.756 66.1081 153.651C52.9971 152.243 40.9686 147.897 30.3905 140.023C11.5984 126.03 1.4063 107.277 0.106659 83.9029C-0.496424 73.0507 1.46963 62.5414 5.7093 52.5134C6.93356 49.6139 8.4473 46.8346 9.90375 44.0404C10.6878 42.5365 11.918 42.1094 13.1122 42.741C14.3093 43.3787 14.6078 44.66 13.869 46.1308C13.5313 46.8016 13.1242 47.4362 12.7865 48.107C12.0779 49.5086 11.3903 50.9223 10.6847 52.354C11.0164 52.4683 11.1099 52.5254 11.2034 52.5254C13.8178 52.5375 16.4291 52.5465 19.0435 52.5465C22.8188 52.5465 24.1938 51.2712 24.4712 47.5264C24.7547 43.7216 27.1127 41.0356 30.9001 40.5182C32.7787 40.2596 34.7086 40.3739 36.6143 40.3288C39.1533 40.2656 40.8871 38.7737 40.9264 36.2742C41.0078 31.0136 40.9354 25.7499 40.9203 20.4892C40.9203 20.42 40.8057 20.3539 40.5374 20.0621C37.6154 22.0232 34.6 23.9091 31.7414 26.0025C27.3449 29.2209 23.5274 33.0619 20.0476 37.2487C18.8776 38.6564 17.6715 38.8369 16.5377 37.8984C15.4431 36.9931 15.4612 35.7448 16.6221 34.3282C17.4182 33.3596 18.2233 32.3941 19.0706 31.4707C39.1925 9.46558 70.0312 1.74754 98.165 11.6643C99.8476 12.2568 101.506 12.9155 103.243 13.5682C103.342 13.1381 103.421 12.8524 103.475 12.5636C104.223 8.53617 106.276 5.34789 109.563 2.89352C111.713 1.29336 114.201 0.616602 116.731 0C117.937 0 119.143 0 120.349 0C121.118 0.207539 121.89 0.400039 122.653 0.622617C125.473 1.44074 127.885 2.92961 129.794 5.14938C130.599 6.08781 130.647 7.21574 129.751 8.14516C128.871 9.05953 127.8 9.10766 126.766 8.34969C126.242 7.9677 125.792 7.48043 125.286 7.07438C121.942 4.39441 118.211 3.74172 114.279 5.40805C110.224 7.12551 107.983 10.3679 107.787 14.7413C107.6 18.859 109.373 22.1736 112.962 24.2791C119.994 28.4058 128.334 23.9302 129.088 15.7098C129.26 13.845 130.177 12.8283 131.579 12.9577C132.939 13.084 133.72 14.1608 133.605 15.9414C133.283 20.8983 131.06 24.8145 126.992 27.6869C125.729 28.5772 125.699 28.9803 126.727 30.1714C128.563 32.2949 130.496 34.3492 132.176 36.59C144.482 53.0217 149.041 71.4927 146.17 91.7082C144.156 105.893 138.21 118.403 128.654 129.125C117.322 141.836 103.279 149.828 86.4501 152.821C83.697 153.311 80.9078 153.612 78.1336 154H78.1275ZM16.0009 95.3146C16.0009 94.0483 15.9225 92.8993 16.022 91.7623C16.1306 90.487 15.7054 89.7291 14.6018 88.9561C9.64442 85.4941 7.2532 78.8498 8.79106 73.2914C10.5822 66.8125 15.8893 62.1745 22.08 61.6752C28.8677 61.1278 35.4473 65.1282 37.6878 71.1679C40.263 78.1039 38.0708 85.1241 32.0852 89.3802C31.5906 89.7321 31.2077 90.5502 31.1685 91.1758C31.0509 93.0738 31.0509 94.9867 31.1685 96.8846C31.2077 97.5313 31.5665 98.3194 32.046 98.7525C34.6362 101.09 36.5329 103.866 36.8374 107.349C37.1541 110.982 37.0606 114.649 37.1119 118.303C37.1631 121.886 39.1201 123.85 42.7446 123.886C44.4031 123.901 46.0646 123.856 47.7201 123.934C52.1316 124.144 56.0849 127.032 57.1191 131.312C57.7192 133.797 57.5865 136.467 57.674 139.057C57.7343 140.844 56.8357 141.863 55.4486 141.857C54.0736 141.851 53.2172 140.823 53.175 139.042C53.1358 137.388 53.2051 135.731 53.1237 134.082C52.9669 130.936 50.5455 128.557 47.3884 128.428C45.8324 128.364 44.2735 128.416 42.7145 128.398C36.6173 128.331 32.6249 124.349 32.5917 118.288C32.5767 115.383 32.6792 112.471 32.5435 109.569C32.4741 108.101 31.9947 106.651 31.6992 105.192C31.4941 105.222 31.2861 105.252 31.081 105.279C31.081 106.753 31.1564 108.233 31.0659 109.701C30.7976 114.071 26.6453 117.281 22.3303 116.517C18.6093 115.858 16.0823 112.901 16.013 109.018C15.9587 106.028 16.0009 103.036 16.0009 99.9737H7.47031C7.45523 100.139 7.41603 100.241 7.44015 100.332C7.5276 100.671 7.62711 101.005 7.73265 101.339C10.8898 111.406 16.1426 120.234 23.3977 127.901C43.3206 148.953 74.1201 155.317 100.8 143.903C101.726 143.509 102.07 143.064 102.058 142.044C102.001 137.132 102.013 132.22 102.037 127.309C102.082 117.693 108.827 110.955 118.444 110.919C123.669 110.901 128.898 110.88 134.124 110.943C135.212 110.955 135.689 110.567 136.126 109.62C140.327 100.518 142.501 90.9653 142.422 80.9523C142.389 76.9218 141.937 72.8973 141.665 68.7586C140.706 68.7586 140.115 68.7616 139.521 68.7586C130.828 68.7075 122.135 68.7526 113.444 68.5631C107.688 68.4398 103.352 65.1763 101.741 59.6539C100.999 57.1093 100.99 54.3391 100.779 51.6592C100.487 47.9505 98.9128 44.6299 94.0007 44.7202C93.0056 44.7382 91.9985 44.5487 91.0124 44.3682C84.1403 43.102 79.8825 38.3707 79.6564 31.4016C79.4634 25.4431 79.5357 19.4756 79.5357 13.5111C79.5357 12.5305 79.3156 12.1125 78.224 12.0523C67.3203 11.4387 56.8025 13.0509 46.7039 17.2769C45.7601 17.6739 45.4555 18.1431 45.4646 19.1477C45.5158 24.6099 45.5158 30.0751 45.4796 35.5373C45.4434 41.2822 41.8822 44.8014 36.1499 44.8314C35.194 44.8375 34.2412 44.8254 33.2853 44.8314C30.1342 44.8525 29.2265 45.6947 28.919 48.8649C28.4787 53.3917 25.5507 56.5499 21.0246 56.8928C17.4272 57.1665 13.7967 57.0552 10.1812 57.0311C9.11672 57.0221 8.62823 57.3139 8.27241 58.3846C6.06814 64.9898 4.85896 71.7604 4.59963 78.7084C4.39458 84.2909 4.9464 89.7952 6.12845 95.3116H16.0009V95.3146ZM84.1916 12.7802C84.1916 19.4275 83.9564 25.8943 84.282 32.331C84.475 36.1629 86.9838 38.7286 90.7923 39.6911C92.2849 40.0671 93.859 40.1994 95.4029 40.2896C100.044 40.5664 103.532 43.2764 104.636 47.752C105.04 49.3853 105.266 51.1057 105.269 52.7871C105.278 59.9788 109.428 64.2318 116.622 64.2439C124.007 64.2589 131.395 64.2499 138.78 64.2439C139.301 64.2439 139.823 64.1867 140.36 64.1566C139.084 56.1198 131.142 40.7378 126.094 36.5118C126.07 37.0713 126.03 37.5495 126.027 38.0308C126.021 41.0386 126.073 44.0434 126.012 47.0512C125.898 52.6818 121.088 56.3123 116.019 54.6459C112.772 53.5782 110.884 50.7839 110.86 46.8286C110.824 41.1168 110.875 35.405 110.812 29.6931C110.806 29.0615 110.462 28.1892 109.976 27.8433C107.051 25.7589 105.007 23.0789 103.876 19.6801C103.734 19.259 103.403 18.7597 103.026 18.5793C97.0644 15.7369 90.8285 13.7637 84.1946 12.7862L84.1916 12.7802ZM106.804 140.946C117.789 134.786 126.459 126.412 132.891 115.693C132.682 115.557 132.604 115.464 132.529 115.464C127.104 115.485 121.667 115.335 116.254 115.593C111.755 115.81 107.226 119.934 106.898 124.439C106.503 129.853 106.804 135.315 106.804 140.943V140.946ZM12.9161 76.8496C12.9584 82.6848 17.8011 87.4913 23.5968 87.4552C29.4195 87.4191 34.2412 82.6005 34.2593 76.8015C34.2804 70.9332 29.3833 66.1027 23.4731 66.1538C17.6051 66.205 12.8709 70.9994 12.9131 76.8496H12.9161ZM115.455 30.2616C115.428 30.7038 115.38 31.1459 115.377 31.585C115.371 36.5479 115.368 41.5078 115.377 46.4707C115.377 47.0181 115.41 47.5776 115.513 48.113C115.775 49.4905 117.008 50.5072 118.383 50.5252C119.689 50.5433 120.931 49.6319 121.266 48.3175C121.423 47.6949 121.483 47.0332 121.483 46.3895C121.501 41.4777 121.492 36.566 121.492 31.6542V30.2616H115.452H115.455ZM26.5157 91.8887H20.5844C20.5663 92.1383 20.5271 92.4301 20.5271 92.7248C20.524 97.9855 20.512 103.246 20.5271 108.504C20.5331 110.681 21.7272 112.092 23.5184 112.134C25.3517 112.176 26.582 110.733 26.5911 108.459C26.6061 103.3 26.5971 98.1389 26.5911 92.9805C26.5911 92.5895 26.5368 92.2015 26.5127 91.8917L26.5157 91.8887Z" fill="#013B82"/>
</svg>
