<svg width="34" height="34" viewBox="0 0 34 34" fill="none" xmlns="http://www.w3.org/2000/svg">
<path d="M3.67962 4.65371L6.62623 1.70711C7.01675 1.31658 7.64992 1.31658 8.04044 1.70711L13.9596 7.62623C14.3501 8.01675 14.3501 8.64992 13.9596 9.04044L11.4982 11.5018C11.2007 11.7993 11.1269 12.2538 11.3151 12.6302C13.4906 16.9813 17.0187 20.5094 21.3698 22.6849C21.7462 22.8731 22.2007 22.7993 22.4982 22.5018L24.9596 20.0404C25.3501 19.6499 25.9832 19.6499 26.3738 20.0404L32.2929 25.9596C32.6834 26.3501 32.6834 26.9832 32.2929 27.3738L29.3463 30.3204C27.2349 32.4317 23.8924 32.6693 21.5036 30.8777L13.6286 24.9714C11.885 23.6638 10.3362 22.115 9.02857 20.3714L3.12226 12.4964C1.33072 10.1076 1.56827 6.76506 3.67962 4.65371Z" stroke="white" stroke-width="2"/>
</svg>
