<svg width="47" height="52" viewBox="0 0 47 52" fill="none" xmlns="http://www.w3.org/2000/svg">
<path d="M23.8999 40.8103L23.4605 39.912L23.4605 39.912L23.8999 40.8103ZM23.1001 40.8103L23.5395 39.912L23.5395 39.912L23.1001 40.8103ZM40 18.5C40 24.7869 36.5884 29.801 32.7397 33.4558C28.8957 37.1061 24.7223 39.2947 23.4605 39.912L24.3393 41.7086C25.6863 41.0496 30.0631 38.7556 34.1169 34.906C38.166 31.0609 42 25.558 42 18.5H40ZM23.5 2C32.6127 2 40 9.3873 40 18.5H42C42 8.28273 33.7173 0 23.5 0V2ZM7 18.5C7 9.3873 14.3873 2 23.5 2V0C13.2827 0 5 8.28273 5 18.5H7ZM23.5395 39.912C22.2776 39.2947 18.1043 37.1061 14.2603 33.4558C10.4116 29.801 7 24.7869 7 18.5H5C5 25.558 8.83398 31.0609 12.8831 34.906C16.9369 38.7556 21.3137 41.0496 22.6607 41.7086L23.5395 39.912ZM23.4605 39.912C23.4669 39.9089 23.4809 39.9041 23.5 39.9041C23.5191 39.9041 23.5331 39.9089 23.5395 39.912L22.6607 41.7086C23.1938 41.9693 23.8062 41.9693 24.3393 41.7086L23.4605 39.912ZM30 18.5C30 22.0899 27.0899 25 23.5 25V27C28.1944 27 32 23.1944 32 18.5H30ZM23.5 12C27.0899 12 30 14.9101 30 18.5H32C32 13.8056 28.1944 10 23.5 10V12ZM17 18.5C17 14.9101 19.9101 12 23.5 12V10C18.8056 10 15 13.8056 15 18.5H17ZM23.5 25C19.9101 25 17 22.0899 17 18.5H15C15 23.1944 18.8056 27 23.5 27V25Z" fill="white"/>
<path d="M42.9856 39.75C44.9604 40.8901 46 42.1835 46 43.5C46 44.8165 44.9604 46.1099 42.9856 47.25C41.0108 48.3901 38.1704 49.3369 34.75 49.9952C31.3296 50.6535 27.4496 51 23.5 51C19.5504 51 15.6704 50.6535 12.25 49.9952C8.82957 49.3369 5.98922 48.3901 4.01443 47.25C2.03964 46.1099 1 44.8165 1 43.5C1 42.1835 2.03964 40.8901 4.01443 39.75" stroke="white" stroke-width="2" stroke-linecap="round"/>
</svg>
