<svg width="164" height="158" viewBox="0 0 164 158" fill="none" xmlns="http://www.w3.org/2000/svg">
<path d="M87.073 7.17192L103.228 45.7424C105.03 50.0453 109.078 52.9866 113.727 53.3709L155.402 56.8161C160.265 57.218 162.235 63.2822 158.538 66.4655L126.847 93.7485C123.312 96.7922 121.765 101.551 122.836 106.092L132.438 146.791C133.558 151.54 128.4 155.288 124.23 152.755L88.4892 131.046C84.502 128.625 79.498 128.625 75.5108 131.046L39.7702 152.755C35.6 155.288 30.4416 151.54 31.5619 146.791L41.1635 106.092C42.2347 101.551 40.6884 96.7922 37.153 93.7485L5.4624 66.4655C1.76481 63.2822 3.73517 57.218 8.59769 56.8161L50.2725 53.3709C54.9217 52.9866 58.97 50.0453 60.7722 45.7424L76.927 7.17192C78.8119 2.67161 85.1881 2.67161 87.073 7.17192Z" stroke="#0029FF" stroke-width="7"/>
</svg>
