<svg width="32" height="32" viewBox="0 0 32 32" fill="none" xmlns="http://www.w3.org/2000/svg">
<path d="M7.69758 0.173436C13.3246 0.173436 18.9534 0.173436 24.5805 0.173436C25.1666 0.297291 25.7703 0.368812 26.3354 0.551977C29.6283 1.61957 31.784 4.56591 31.7945 8.03034C31.8085 13.2026 31.8015 18.3748 31.7945 23.5488C31.7927 25.2095 31.3308 26.7411 30.344 28.086C28.7133 30.3084 26.4964 31.397 23.7371 31.397C18.7015 31.397 13.6658 31.4004 8.63192 31.3917C8.10351 31.3917 7.56811 31.3673 7.05019 31.2731C4.15619 30.748 2.13878 29.1083 1.03297 26.4009C0.749515 25.7066 0.656782 24.9356 0.476562 24.1994C0.476562 18.5894 0.476562 12.9775 0.476562 7.36746C0.515056 7.14941 0.551797 6.93135 0.59379 6.7133C1.13445 3.8472 2.76342 1.83937 5.45971 0.735142C6.16309 0.447312 6.94871 0.353112 7.69583 0.171692L7.69758 0.173436ZM3.10811 15.7861C3.10811 15.7861 3.10111 15.7861 3.09586 15.7861C3.09586 18.326 3.10112 20.8676 3.09237 23.4075C3.09062 24.2221 3.20259 25.0124 3.56653 25.7433C4.57436 27.7651 6.22083 28.7855 8.48669 28.789C13.5836 28.7943 18.6805 28.7925 23.7773 28.789C24.122 28.789 24.4702 28.7646 24.8114 28.7175C27.1648 28.3913 29.1454 26.2439 29.1612 23.8802C29.1944 18.5545 29.1769 13.2305 29.1787 7.90474C29.1787 7.18255 29.0387 6.48478 28.7185 5.84108C27.7142 3.81929 26.0729 2.78659 23.8071 2.7831C18.6997 2.77612 13.5941 2.77961 8.48669 2.7831C8.142 2.7831 7.79382 2.80927 7.45262 2.85637C5.12552 3.17734 3.14835 5.33694 3.11686 7.67622C3.08011 10.3783 3.10811 13.0822 3.10811 15.7861Z" fill="white" fill-opacity="0.8"/>
<path d="M16.1001 7.98145C20.3974 7.94133 23.9423 11.4476 23.9668 15.7633C23.9913 20.0424 20.4989 23.5522 16.1754 23.5923C11.8799 23.6325 8.33322 20.1244 8.30872 15.8104C8.28423 11.5279 11.7731 8.02332 16.0984 7.98319L16.1001 7.98145ZM16.1141 20.9827C18.9871 21.0054 21.3195 18.7062 21.351 15.8174C21.3825 12.9566 19.0746 10.6243 16.1789 10.5876C13.2989 10.5527 10.9438 12.8746 10.9263 15.7668C10.9088 18.6329 13.2236 20.9583 16.1141 20.9809V20.9827Z" fill="white" fill-opacity="0.8"/>
<path d="M24.6233 9.27012C23.5472 9.27012 22.6828 8.41709 22.6758 7.34427C22.6671 6.26447 23.5454 5.3783 24.6233 5.3783C25.6958 5.3783 26.5987 6.2854 26.5812 7.34252C26.5619 8.41535 25.6941 9.26837 24.6233 9.26837V9.27012Z" fill="white" fill-opacity="0.8"/>
</svg>
