<svg width="29" height="28" viewBox="0 0 29 28" fill="none" xmlns="http://www.w3.org/2000/svg">
<path d="M0.847656 20.4595C0.847656 15.889 0.847656 11.3193 0.847656 6.74883C0.889607 6.51588 0.922236 6.28094 0.975507 6.05065C1.66737 3.08157 3.45196 1.12747 6.3912 0.260236C6.78541 0.144428 7.19627 0.0851924 7.5998 0C12.1725 0 16.7445 0 21.3172 0C21.7733 0.0978381 22.2348 0.173713 22.6842 0.296177C25.8153 1.14743 28.0606 4.12517 28.0673 7.44634C28.0753 11.5469 28.0833 15.6468 28.056 19.7473C28.0513 20.4455 27.9408 21.161 27.7603 21.8372C26.9253 24.9627 23.9421 27.199 20.6326 27.2063C16.5214 27.2156 12.4102 27.2216 8.29965 27.1957C7.60979 27.191 6.89329 27.1025 6.23605 26.9008C3.54185 26.0722 1.82052 24.2645 1.07006 21.5463C0.971512 21.1903 0.920238 20.8215 0.847656 20.4595ZM14.4578 21.0518C18.5677 21.0525 21.8965 17.732 21.9098 13.6181C21.9238 9.50694 18.579 6.15715 14.4591 6.15648C10.3493 6.15581 7.02047 9.47632 7.00715 13.5902C6.99317 17.7014 10.3379 21.0512 14.4578 21.0518ZM24.6227 5.69857C24.6253 4.44864 23.6172 3.44164 22.3659 3.44497C21.1307 3.44829 20.1132 4.43466 20.1152 5.68127C20.1172 6.91789 21.0408 7.93554 22.3606 7.94818C23.6724 7.96083 24.6246 6.90258 24.6227 5.69924V5.69857Z" fill="white"/>
<path d="M20.3146 13.609C20.3066 16.8503 17.6863 19.4646 14.4528 19.4566C11.2105 19.4487 8.59359 16.829 8.60158 13.5977C8.60957 10.3564 11.2305 7.74203 14.4641 7.75002C17.707 7.75801 20.3226 10.3777 20.3146 13.6097V13.609Z" fill="white"/>
<path d="M23.0243 5.70013C23.0243 6.05397 22.7209 6.36592 22.3735 6.36991C22.0275 6.3739 21.6894 6.03269 21.6974 5.68815C21.7054 5.33963 22.0175 5.04098 22.3728 5.04298C22.7355 5.04497 23.025 5.33697 23.025 5.70013H23.0243Z" fill="white"/>
</svg>
