<svg width="53" height="35" viewBox="0 0 53 35" fill="none" xmlns="http://www.w3.org/2000/svg">
<path d="M26.223 16.4239C25.7924 17.1796 25.4359 17.8323 25.052 18.4714C23.0082 21.8747 21.0286 25.3226 18.8737 28.656C17.9638 30.0624 16.7597 31.3134 15.5478 32.4886C11.7289 36.193 3.73461 35.7326 1.11207 29.1572C0.449613 27.4924 0.0794177 25.7714 0.0209658 23.9959C-0.179719 18.0032 1.04777 12.3369 4.24509 7.20859C5.13162 5.78471 6.23246 4.43466 7.45995 3.29051C12.0192 -0.955852 17.8274 -1.09766 22.6243 2.89618C23.959 4.0073 25.091 5.3593 26.3107 6.6064C26.5114 6.81231 26.6809 7.04736 26.9128 7.32708C27.4135 6.70741 27.8538 6.10523 28.3565 5.55938C29.2099 4.6328 30.0458 3.67902 30.9869 2.84567C35.098 -0.798508 40.0703 -0.895634 44.3626 2.55429C47.4723 5.05238 49.3837 8.36633 50.6813 12.0532C52.1718 16.2899 52.7778 20.6645 52.2829 25.1362C52.1212 26.6086 51.7568 28.1082 51.1957 29.4777C49.0661 34.672 42.9461 36.4494 38.2563 33.3123C36.0059 31.8068 34.416 29.6817 32.9957 27.4497C30.8388 24.0561 28.7852 20.5984 26.6868 17.1679C26.5601 16.962 26.4315 16.758 26.223 16.4259V16.4239ZM47.6028 22.4574C47.3359 18.7181 46.8371 15.7479 45.7655 12.8225C44.7971 10.1768 43.5014 7.7253 41.214 5.94983C38.6071 3.92572 35.6903 4.00147 33.284 6.24704C32.2455 7.21636 31.3454 8.34691 30.4803 9.47746C29.4379 10.8411 29.4827 10.8741 30.4121 12.2863C30.5855 12.5486 30.7531 12.8167 30.9187 13.0828C33.4048 17.0688 35.8579 21.0743 38.3927 25.0274C39.1058 26.1385 39.9534 27.2108 40.9257 28.0985C43.0611 30.0469 46.0499 29.2504 46.9033 26.5037C47.3067 25.208 47.3787 23.8075 47.5989 22.4555L47.6028 22.4574ZM5.65379 22.201C5.64599 24.0794 5.7629 25.546 6.40587 26.9175C7.17938 28.5667 8.5608 29.2951 10.3709 29.0698C11.5516 28.9221 12.4654 28.2928 13.2155 27.4478C14.0514 26.5095 14.8736 25.5402 15.5711 24.499C17.9501 20.9345 20.2726 17.3311 22.6146 13.7413C23.2511 12.7649 23.2147 11.8117 22.5055 10.8819C21.3676 9.39781 20.1849 7.95257 18.6204 6.8803C16.1284 5.17282 13.4318 5.31074 11.2437 7.3737C10.3903 8.17791 9.62267 9.12586 9.01283 10.1263C6.68254 13.9453 5.79797 18.1761 5.65184 22.201H5.65379Z" fill="#013B82" fill-opacity="0.35"/>
</svg>
