<svg width="42" height="28" viewBox="0 0 42 28" fill="none" xmlns="http://www.w3.org/2000/svg">
<path d="M20.8269 12.7257C20.4849 13.3112 20.2018 13.8169 19.8969 14.3121C18.2736 16.949 16.7014 19.6206 14.9899 22.2034C14.2672 23.2931 13.3109 24.2624 12.3484 25.173C9.31535 28.0433 2.96612 27.6866 0.883231 22.5917C0.357093 21.3018 0.0630754 19.9683 0.0166515 18.5926C-0.142737 13.9493 0.832164 9.55891 3.37155 5.5854C4.07565 4.48214 4.94996 3.43609 5.92486 2.54957C9.54593 -0.740619 14.1589 -0.850492 17.9688 2.24403C19.0288 3.10496 19.9279 4.15252 20.8966 5.11881C21.056 5.27835 21.1906 5.46047 21.3747 5.67721C21.7724 5.19708 22.1222 4.73049 22.5214 4.30755C23.1992 3.58961 23.8631 2.8506 24.6105 2.2049C27.8756 -0.618704 31.8247 -0.69396 35.2338 1.97913C37.7036 3.91471 39.2216 6.48245 40.2522 9.33916C41.436 12.6218 41.9173 16.0114 41.5242 19.4761C41.3958 20.617 41.1064 21.779 40.6608 22.8401C38.9694 26.8648 34.1088 28.242 30.3841 25.8112C28.5967 24.6447 27.334 22.9981 26.2059 21.2687C24.4929 18.6393 22.8618 15.9602 21.1952 13.3021C21.0946 13.1426 20.9925 12.9846 20.8269 12.7272V12.7257ZM37.8072 17.4006C37.5952 14.5032 37.1991 12.2019 36.348 9.93519C35.5789 7.88522 34.5498 5.98576 32.7331 4.61008C30.6626 3.04175 28.3461 3.10045 26.4349 4.84036C25.6101 5.59142 24.8952 6.4674 24.2081 7.34338C23.3802 8.39997 23.4158 8.42556 24.154 9.51978C24.2917 9.72297 24.4248 9.93068 24.5563 10.1369C26.5309 13.2254 28.4791 16.3289 30.4924 19.3919C31.0588 20.2528 31.7319 21.0836 32.5041 21.7714C34.2001 23.2811 36.5739 22.664 37.2517 20.5357C37.572 19.5318 37.6293 18.4466 37.8041 17.3991L37.8072 17.4006ZM4.49037 17.2019C4.48418 18.6574 4.57702 19.7937 5.08769 20.8563C5.70203 22.1342 6.79918 22.6986 8.23677 22.524C9.17453 22.4096 9.9003 21.922 10.4961 21.2672C11.1599 20.5403 11.813 19.7892 12.367 18.9825C14.2564 16.2206 16.101 13.4286 17.961 10.6471C18.4665 9.89054 18.4376 9.15203 17.8744 8.43158C16.9707 7.28167 16.0313 6.16186 14.7887 5.33103C12.8095 4.00803 10.6678 4.1149 8.93004 5.71333C8.25225 6.33645 7.64255 7.07095 7.15819 7.84609C5.30743 10.8052 4.60488 14.0833 4.48882 17.2019H4.49037Z" fill="white"/>
</svg>
