<svg width="26" height="27" viewBox="0 0 26 27" fill="none" xmlns="http://www.w3.org/2000/svg">
<path d="M25.1367 11.1318C22.5695 11.1318 20.2993 10.3401 18.17 8.83047C18.17 9.0758 18.17 9.23534 18.17 9.39489C18.1809 12.4262 18.2056 15.456 18.201 18.4873C18.1948 22.4939 15.5796 25.742 11.5949 26.7263C6.88748 27.8898 2.0888 24.9669 1.05819 20.3115C0.0538881 15.7721 3.19833 11.2492 7.95833 10.447C8.87752 10.2919 9.83076 10.3205 10.8103 10.2618V14.7937C10.5132 14.7531 10.213 14.6974 9.90813 14.6733C7.66276 14.4942 5.77795 15.9978 5.4762 18.2013C5.20539 20.1866 6.74976 22.2035 8.80015 22.5391C11.0331 22.9063 13.1005 21.5668 13.5555 19.437C13.6375 19.0502 13.6483 18.6423 13.6499 18.2435C13.6576 12.3825 13.6592 6.52161 13.6623 0.659172C13.6623 0.462001 13.6623 0.26483 13.6623 0.0390625H18.1283C18.2412 3.62576 21.0994 6.64202 25.1383 6.79103V11.1303L25.1367 11.1318Z" fill="white"/>
</svg>
