<svg width="49" height="27" viewBox="0 0 49 27" fill="none" xmlns="http://www.w3.org/2000/svg">
<path d="M28.9886 6.37664C28.9886 7.96755 28.9545 9.55997 29.0056 11.1494C29.0273 11.7921 29.0597 12.5853 29.8335 12.8276C30.5701 13.0579 30.9353 12.3715 31.3454 11.9335C33.764 9.34172 35.5127 6.35105 36.8621 3.12709C37.023 2.74178 37.1746 2.35044 37.3665 1.98019C37.6497 1.43533 38.1124 1.11625 38.7546 1.11474C41.6329 1.11023 44.5127 1.07862 47.391 1.12979C48.7822 1.15538 49.3269 1.87633 48.7822 3.11354C48.1431 4.56448 47.3539 5.97477 46.4532 7.28874C45.1394 9.20325 43.6663 11.0169 42.2612 12.8727C40.675 14.9694 40.6998 15.4194 42.5691 17.221C44.6118 19.1897 46.7287 21.0922 48.3086 23.4597C48.4727 23.7066 48.6444 23.9519 48.7698 24.2183C49.3625 25.4902 48.7837 26.619 47.3662 26.8658C46.6761 26.9862 45.9596 26.9998 45.2555 26.9968C43.4883 26.9892 41.7211 26.9501 39.9539 26.9155C38.4652 26.8869 37.2087 26.324 36.1796 25.2915C35.1258 24.2349 34.1045 23.1482 33.0491 22.0916C32.6638 21.7063 32.2522 21.333 31.8034 21.023C30.8563 20.3667 29.9433 20.6632 29.6431 21.759C29.3708 22.7508 29.1696 23.7653 29.018 24.7812C28.8029 26.2186 28.2628 26.7454 26.7695 26.8417C20.1572 27.2677 14.8556 24.8294 10.7347 19.8761C6.91711 15.2869 4.07287 10.1334 1.56134 4.79325C1.2472 4.12498 0.909861 3.46574 0.637507 2.78091C0.232072 1.76345 0.693212 1.03648 1.79346 1.03347C4.19202 1.02594 6.59214 1.04852 8.98916 1.11625C10.0925 1.14785 10.7626 1.81763 11.1603 2.79144C12.4508 5.9522 14.1469 8.8932 16.2994 11.5783C16.6058 11.9606 16.9694 12.3173 17.3625 12.6139C18.1656 13.2204 18.7506 13.0458 18.9672 12.1006C19.1792 11.1735 19.3711 10.2207 19.3958 9.2755C19.4345 7.70867 19.3572 6.13883 19.2813 4.572C19.2179 3.23395 18.5912 2.53256 17.2464 2.16983C16.4154 1.94557 16.2529 1.50156 16.9323 0.973261C17.4584 0.565373 18.1532 0.148455 18.7877 0.125878C21.3828 0.0355712 23.9841 0.0280456 26.5792 0.121363C28.2535 0.181568 28.9236 0.928107 28.9948 2.55063C29.0505 3.82245 29.0056 5.09879 29.0056 6.37363C28.9994 6.37363 28.9932 6.37363 28.9855 6.37363L28.9886 6.37664Z" fill="white"/>
</svg>
