<svg width="38" height="38" viewBox="0 0 38 38" fill="none" xmlns="http://www.w3.org/2000/svg">
<path d="M10.4167 12.8673C10.7475 11.8166 11.6486 10.559 12.3016 10.2366C12.5909 10.0957 12.8057 10.0627 13.5083 10.0623C14.335 10.0623 14.3765 10.0709 14.5913 10.2858C14.7317 10.4348 15.112 11.2454 15.6576 12.5526C16.1206 13.6779 16.501 14.6375 16.501 14.6871C16.501 14.9192 16.038 15.6552 15.5091 16.2757C15.1454 16.6975 14.9306 17.0199 14.9306 17.1359C14.9306 17.2434 15.195 17.7397 15.5258 18.2278C16.3276 19.4276 17.8073 20.9164 18.9566 21.6777C19.8574 22.2733 21.4615 23.0509 21.7837 23.0509C22.0237 23.0509 22.4619 22.6206 23.3545 21.4965C23.7186 21.0417 24.0408 20.7107 24.1649 20.6859C24.2723 20.6525 24.5371 20.6941 24.752 20.7767C25.372 21.0165 28.5054 22.5469 28.6706 22.6959C28.9932 22.9935 28.7287 24.6976 28.2491 25.3926C27.5131 26.4682 25.4135 27.3866 24.0327 27.2458C23.0241 27.1383 20.6433 26.3525 19.0974 25.6161C17.1132 24.6647 15.0217 22.9271 13.3268 20.8012C12.3594 19.5933 11.3838 18.1207 10.9623 17.2438C10.3919 16.0526 10.1852 15.1341 10.243 14.0752C10.2678 13.6201 10.3504 13.0741 10.4167 12.8673Z" fill="#013B82"/>
<path fill-rule="evenodd" clip-rule="evenodd" d="M0.959194 15.0511C2.50516 7.11766 8.82941 1.2027 16.9559 0.0941295C18.0719 -0.0630167 21.2053 -0.0133525 22.2887 0.168629C23.4213 0.366908 24.9177 0.755703 25.8355 1.10337C31.9034 3.36164 36.3843 8.58205 37.6573 14.861C38.211 17.5992 38.0869 20.8093 37.3347 23.506C35.5405 29.8924 30.3322 34.9223 23.8591 36.5272C19.6431 37.5694 15.2118 37.1143 11.2187 35.2448L10.2432 34.7815L5.13413 36.4112C2.33145 37.3048 0.0169544 38.0164 0.00028099 37.9997C-0.0163924 37.983 0.711032 35.7577 1.62884 33.0692L3.29036 28.163L2.62071 26.8314C0.760664 23.0839 0.19028 19.0302 0.959194 15.0511ZM34.4824 14.4058C32.8538 8.44934 27.6785 3.90758 21.5857 3.08032C18.2623 2.63372 15.1288 3.13853 12.2436 4.59437C5.24968 8.13505 1.91811 16.226 4.43889 23.539C4.76111 24.4738 5.62929 26.2361 6.16671 27.0467L6.59673 27.692L5.63782 30.5047C5.10892 32.0518 4.67891 33.3509 4.67891 33.3838C4.67891 33.425 6.00967 33.028 7.63009 32.5151C9.25865 31.994 10.6146 31.5718 10.6394 31.5718C10.6728 31.5718 10.995 31.7456 11.3506 31.9524C15.1948 34.2437 19.9897 34.7404 24.3135 33.3008C29.3733 31.6215 33.2668 27.4437 34.5731 22.2981C35.2098 19.783 35.1768 16.9458 34.4824 14.4058Z" fill="#013B82"/>
</svg>
