<svg width="40" height="27" viewBox="0 0 40 27" fill="none" xmlns="http://www.w3.org/2000/svg">
<path d="M39.4202 11.1536V15.9037C39.4001 16.0241 39.3691 16.143 39.3598 16.2634C39.202 18.3224 39.0596 20.3814 38.8848 22.4389C38.7347 24.215 37.0479 25.8857 35.2498 26.0678C33.6451 26.2318 32.0403 26.3944 30.4325 26.5374C26.8347 26.858 23.2275 26.9814 19.6142 26.9769C14.6252 26.9709 9.65783 26.6367 4.70131 26.0964C2.82115 25.8917 1.08025 24.3369 0.903844 22.5398C0.671725 20.1903 0.482932 17.8333 0.388536 15.4763C0.241527 11.8263 0.469009 8.18395 0.886824 4.5536C1.08799 2.79713 2.76854 1.13999 4.55121 0.989477C7.72815 0.720061 10.9051 0.425057 14.0867 0.229392C18.4443 -0.0385194 22.8066 0.01717 27.1612 0.291102C29.8228 0.45817 32.4783 0.744143 35.1353 0.980447C36.9845 1.1445 38.7053 2.74746 38.877 4.54457C39.0705 6.57498 39.1973 8.61141 39.3552 10.6448C39.3691 10.8149 39.3985 10.9835 39.4217 11.1536H39.4202ZM16.6446 7.20562V19.8531C19.9144 17.7339 23.1347 15.6448 26.3967 13.5301C23.1269 11.4094 19.9175 9.32784 16.6446 7.20562Z" fill="white"/>
</svg>
